<?xml version="1.0" encoding="UTF-8" standalone="no"?>
<svg
   xmlns:dc="http://purl.org/dc/elements/1.1/"
   xmlns:cc="http://creativecommons.org/ns#"
   xmlns:rdf="http://www.w3.org/1999/02/22-rdf-syntax-ns#"
   xmlns:svg="http://www.w3.org/2000/svg"
   xmlns="http://www.w3.org/2000/svg"
   version="1.1"
   id="svg7327"
   viewBox="0 0 708.66142 531.49606"
   height="150mm"
   width="200mm">
  <defs
     id="defs7329" />
  <metadata
     id="metadata7332">
    <rdf:RDF>
      <cc:Work
         rdf:about="">
        <dc:format>image/svg+xml</dc:format>
        <dc:type
           rdf:resource="http://purl.org/dc/dcmitype/StillImage" />
        <dc:title></dc:title>
      </cc:Work>
    </rdf:RDF>
  </metadata>
  <g
     transform="translate(0,-520.86614)"
     id="layer1">
    <g
       transform="matrix(4.1694756,0,0,-4.1694756,45.288807,783.35194)"
       id="g664">
      <path
         id="path666"
         style="fill:#03428d;fill-opacity:1;fill-rule:nonzero;stroke:none"
         d="m 0,0 0.062,-16.347 3.317,-0.06 c 2.934,0 4.583,0.548 5.954,1.935 1.371,1.389 2.369,3.139 2.369,6.132 0,2.977 -0.715,4.421 -2.091,5.802 C 8.25,-1.153 6.539,-0.052 3.59,-0.052 L 0,0 Z m -3.204,2.748 5.945,0 c 4.14,0 7.176,-0.901 9.098,-2.696 1.94,-1.786 2.913,-4.587 2.913,-8.392 0,-3.825 -0.973,-6.64 -2.927,-8.438 -1.936,-1.79 -4.972,-2.691 -9.084,-2.691 l -5.945,0 0,22.217 z" />
    </g>
    <g
       transform="matrix(4.1694756,0,0,-4.1694756,159.90061,831.12786)"
       id="g668">
      <path
         id="path670"
         style="fill:#03428d;fill-opacity:1;fill-rule:nonzero;stroke:none"
         d="m 0,0 -1.111,0.031 c -4.44,0 -6.328,-0.941 -6.328,-3.211 0,-0.836 0.363,-1.326 0.969,-1.824 0.616,-0.5 1.251,-0.683 2.238,-0.683 1.26,0 2.007,0.316 2.869,1.074 0.867,0.755 1.327,1.463 1.327,2.594 L 0,0 Z m 0.129,2.828 c 0,1.095 -0.352,1.952 -1.062,2.569 -0.68,0.621 -1.622,0.929 -2.85,0.929 -0.546,0 -1.149,-0.077 -1.774,-0.235 C -6.17,5.933 -7.616,5.16 -8.56,4.753 l -0.139,2.42 c 1.806,0.852 3.47,1.473 5.213,1.473 2.038,0 3.45,-0.406 4.589,-1.383 C 2.238,6.285 2.846,4.647 2.846,2.889 l 0,-10.572 -2.65,0 0.061,2.163 c -1.392,-1.658 -3.177,-2.491 -5.307,-2.491 -1.628,0 -2.944,0.435 -3.975,1.304 -0.998,0.873 -1.511,2.018 -1.511,3.44 0,1.738 0.956,3.41 2.106,4.121 1.147,0.714 1.96,0.914 2.97,1.132 0.987,0.218 2.171,0.131 3.777,0.131 l 1.778,0 0.034,0.711 z" />
    </g>
    <g
       transform="matrix(4.1694756,0,0,-4.1694756,340.0228,831.12786)"
       id="g672">
      <path
         id="path674"
         style="fill:#03428d;fill-opacity:1;fill-rule:nonzero;stroke:none"
         d="m 0,0 -1.098,0.031 c -4.444,0 -6.325,-0.941 -6.325,-3.211 0,-0.836 0.349,-1.326 0.966,-1.824 0.599,-0.5 1.239,-0.683 2.227,-0.683 1.265,0 2.017,0.316 2.872,1.074 0.855,0.755 1.327,1.463 1.327,2.594 L 0,0 Z m 0.132,2.828 c 0,1.095 -0.358,1.952 -1.037,2.569 -0.714,0.621 -1.652,0.929 -2.858,0.929 -0.565,0 -1.168,-0.077 -1.796,-0.235 C -6.17,5.933 -7.609,5.16 -8.557,4.753 L -8.7,7.173 c 1.805,0.852 3.461,1.473 5.22,1.473 2.033,0 3.449,-0.406 4.59,-1.383 C 2.231,6.285 2.846,4.647 2.846,2.889 l 0,-10.572 -2.661,0 0.068,2.163 c -1.388,-1.658 -3.161,-2.491 -5.296,-2.491 -1.619,0 -2.956,0.435 -3.963,1.304 -1.032,0.873 -1.536,2.018 -1.536,3.44 0,1.738 0.962,3.41 2.118,4.121 1.161,0.714 1.956,0.914 2.95,1.132 1.007,0.218 2.19,0.131 3.792,0.131 l 1.787,0 0.027,0.711 z" />
    </g>
    <g
       transform="matrix(4.1694756,0,0,-4.1694756,515.96505,831.12786)"
       id="g676">
      <path
         id="path678"
         style="fill:#03428d;fill-opacity:1;fill-rule:nonzero;stroke:none"
         d="m 0,0 -1.1,0.031 c -4.439,0 -6.324,-0.941 -6.324,-3.211 0,-0.836 0.36,-1.326 0.975,-1.824 0.602,-0.5 1.252,-0.683 2.236,-0.683 1.246,0 2.009,0.316 2.871,1.074 0.85,0.755 1.311,1.463 1.311,2.594 L 0,0 Z m 0.125,2.828 c 0,1.095 -0.331,1.952 -1.03,2.569 -0.696,0.621 -1.646,0.929 -2.858,0.929 -0.556,0 -1.158,-0.077 -1.776,-0.235 C -6.157,5.933 -7.602,5.16 -8.553,4.753 l -0.135,2.42 c 1.801,0.852 3.462,1.473 5.218,1.473 2.038,0 3.439,-0.406 4.59,-1.383 C 2.237,6.285 2.854,4.647 2.854,2.889 l 0,-10.572 -2.651,0 0.063,2.163 c -1.406,-1.658 -3.168,-2.491 -5.311,-2.491 -1.612,0 -2.946,0.435 -3.94,1.304 -1.021,0.873 -1.543,2.018 -1.543,3.44 0,1.738 0.952,3.41 2.12,4.121 1.147,0.714 1.946,0.914 2.945,1.132 1.005,0.218 2.189,0.131 3.789,0.131 l 1.785,0 0.014,0.711 z" />
    </g>
    <g
       transform="matrix(4.1694756,0,0,-4.1694756,664.7753,831.12786)"
       id="g680">
      <path
         id="path682"
         style="fill:#03428d;fill-opacity:1;fill-rule:nonzero;stroke:none"
         d="m 0,0 -1.092,0.031 c -4.448,0 -6.33,-0.941 -6.33,-3.211 0,-0.836 0.358,-1.326 0.964,-1.824 0.611,-0.5 1.25,-0.683 2.233,-0.683 1.265,0 2.01,0.316 2.881,1.074 0.847,0.755 1.32,1.463 1.32,2.594 L 0,0 Z m 0.146,2.828 c 0,1.095 -0.358,1.952 -1.059,2.569 -0.696,0.621 -1.646,0.929 -2.855,0.929 -0.561,0 -1.149,-0.077 -1.772,-0.235 C -6.172,5.933 -7.6,5.16 -8.558,4.753 l -0.13,2.42 c 1.805,0.852 3.465,1.473 5.215,1.473 2.038,0 3.449,-0.406 4.585,-1.383 C 2.241,6.285 2.846,4.647 2.846,2.889 l 0,-10.572 -2.655,0 0.066,2.163 c -1.378,-1.658 -3.156,-2.491 -5.298,-2.491 -1.619,0 -2.948,0.435 -3.966,1.304 -1.013,0.873 -1.534,2.018 -1.534,3.44 0,1.738 0.971,3.41 2.124,4.121 1.153,0.714 1.959,0.914 2.945,1.132 1.011,0.218 2.196,0.131 3.801,0.131 l 1.774,0 0.043,0.711 z" />
    </g>
    <g
       transform="matrix(4.1694756,0,0,-4.1694756,215.62231,805.64486)"
       id="g684">
      <path
         id="path686"
         style="fill:#03428d;fill-opacity:1;fill-rule:nonzero;stroke:none"
         d="m 0,0 c -2.017,-0.147 -3.357,-1.909 -3.74,-3.777 -0.109,-0.61 -0.171,-1.28 -0.171,-1.903 l 0,-8.009 -2.873,0 0,15.866 2.754,-0.006 0.009,-2.377 c 0.979,1.859 2.301,2.813 4.105,2.813 L 2.05,2.443 2.05,-0.156 0.67,0.004 0,0 Z" />
    </g>
    <g
       transform="matrix(4.1694756,0,0,-4.1694756,280.38385,796.89896)"
       id="g688">
      <path
         id="path690"
         style="fill:#03428d;fill-opacity:1;fill-rule:nonzero;stroke:none"
         d="m 0,0 2.987,-0.004 -6.699,-18.777 c -0.502,-1.404 -1.131,-2.415 -1.898,-3.035 -0.783,-0.625 -1.796,-0.933 -3.052,-0.933 -0.644,0 -1.326,0.015 -2.232,0.215 l 0.157,2.347 c 0.422,-0.082 1.293,-0.141 1.639,-0.141 0.836,0 1.459,0.277 1.93,0.834 0.473,0.56 0.919,1.601 1.343,3.139 L -11.805,0 l 3.124,0 3.762,-10.908 c 0.156,-0.463 0.514,-1.567 0.683,-2.006 l 0.219,0.753" />
    </g>
    <g
       transform="matrix(4.1694756,0,0,-4.1694756,544.21909,796.62919)"
       id="g692">
      <path
         id="path694"
         style="fill:#03428d;fill-opacity:1;fill-rule:nonzero;stroke:none"
         d="m 0,0 2.765,0.025 0,-2.531 C 3.802,-0.658 5.14,0.372 7.093,0.372 L 8.034,0.262 C 8.329,0.193 8.368,0.225 8.913,0.127 l 0,-2.57 -1.345,0.221 -0.553,0.03 c -1.481,0 -2.214,-0.78 -2.774,-1.491 C 3.689,-4.404 3.366,-5.059 3.291,-5.55 3.193,-6.042 3.023,-6.842 3.023,-7.864 l 0,-7.981 L 0,-15.928 0,0 Z" />
    </g>
    <g
       transform="matrix(4.1694756,0,0,-4.1694756,395.87292,772.27571)"
       id="g696">
      <path
         id="path698"
         style="fill:#03428d;fill-opacity:1;fill-rule:nonzero;stroke:none"
         d="m 0,0 8.181,-21.821 3.924,0 L 20.401,0 17.133,0 10.162,-19.003 3.485,0 0,0 Z" />
    </g>
    <path
       id="path700"
       style="fill:#03428d;fill-opacity:1;fill-rule:nonzero;stroke:none"
       d="m 606.8909,781.84853 -14.05113,0 0,-13.83432 14.05113,0 0,13.83432 z" />
    <path
       id="path702"
       style="fill:#03428d;fill-opacity:1;fill-rule:nonzero;stroke:none"
       d="m 605.88606,862.79889 -12.18321,0 0,-66.02781 12.18321,0 0,66.02781 z" />
    <g
       transform="matrix(4.1694756,0,0,-4.1694756,256.67371,573.95295)"
       id="g704">
      <path
         id="path706"
         style="fill:#0091cb;fill-opacity:1;fill-rule:nonzero;stroke:none"
         d="m 0,0 34.709,-20.393 -10.177,-5.648 -7.181,-3.991 -5.908,-3.571 -7.507,-4.414 -3.936,-2.34 -0.279,18.151 3.8,2.026 L 0,-17.999 0,0 Z" />
    </g>
    <g
       transform="matrix(4.1694756,0,0,-4.1694756,473.72286,658.73505)"
       id="g708">
      <path
         id="path710"
         style="fill:#03428d;fill-opacity:1;fill-rule:nonzero;stroke:none"
         d="m 0,0 -34.529,-19.839 -0.177,11.318 0,7.927 0,6.871 0,7.773 0.245,6.1 15.627,-9.061 -0.22,-3.932 4.32,1.835 L 0,0 Z" />
    </g>
    <g
       transform="matrix(4.1694756,0,0,-4.1694756,329.01871,616.47242)"
       id="g712">
      <path
         id="path714"
         style="fill:#0068a8;fill-opacity:1;fill-rule:nonzero;stroke:none"
         d="M 0,0 17.419,-10.327 0,-19.965 0,-14.06 0,-8.813 0,-4.365 0,0 Z" />
    </g>
    <path
       id="path716"
       style="fill:#03428d;fill-opacity:1;fill-rule:nonzero;stroke:none"
       d="m 400.61444,832.64108 -33.66017,0 0,-10.02341 33.66017,0 0,10.02341 z" />
    <g
       transform="matrix(4.1694756,0,0,-4.1694756,138.13886,930.42186)"
       id="g718">
      <path
         id="path720"
         style="fill:#03428d;fill-opacity:1;fill-rule:nonzero;stroke:none"
         d="m 0,0 2.362,0 0.069,-7.08 3.636,0.032 0,-1.813 L 0,-8.861 0,0 Z" />
    </g>
    <g
       transform="matrix(4.1694756,0,0,-4.1694756,228.72114,960.47627)"
       id="g722">
      <path
         id="path724"
         style="fill:#03428d;fill-opacity:1;fill-rule:nonzero;stroke:none"
         d="m 0,0 c 0.484,-0.032 0.613,0.006 0.949,0.006 0.887,0 1.522,0.151 1.559,0.96 C 2.55,1.833 1.992,2.137 1.013,2.137 L 0.021,2.15 0,0 Z m 0.052,3.719 0.698,0 c 1.059,0 1.531,0.292 1.531,0.941 0,0.662 -0.51,0.858 -1.399,0.858 -0.445,0 -0.675,-0.028 -0.83,-0.066 l 0,-1.733 z m -2.376,3.489 c 0.517,0.1 1.928,0 2.932,0 1.191,0 2.059,-0.025 2.712,-0.353 C 4.006,6.507 4.671,6.146 4.625,4.838 4.591,4.081 4.281,3.324 3.3,2.949 L 3.105,2.854 C 4.115,2.595 4.901,1.939 4.901,0.812 4.901,0.016 4.377,-0.62 3.833,-1.05 3.202,-1.555 1.935,-1.653 0.207,-1.653 c -0.967,0 -2.097,-0.064 -2.531,0 l 0,8.861 z" />
    </g>
    <g
       transform="matrix(4.1694756,0,0,-4.1694756,276.92068,960.58423)"
       id="g726">
      <path
         id="path728"
         style="fill:#03428d;fill-opacity:1;fill-rule:nonzero;stroke:none"
         d="M 0,0 C 1.333,0 1.879,1.209 1.879,2.912 1.879,4.476 1.362,5.569 0,5.569 -1.353,5.569 -1.986,4.433 -1.986,2.8 -1.986,1.166 -1.315,0 0,0 m -0.159,-1.806 c -2.567,0 -4.304,1.933 -4.304,4.416 0,3.361 1.737,4.8 4.463,4.8 C 2.661,7.41 4.293,5.869 4.484,2.8 4.633,-0.059 2.556,-1.806 0,-1.806 l -0.159,0 z" />
    </g>
    <g
       transform="matrix(4.1694756,0,0,-4.1694756,441.6596,960.73895)"
       id="g730">
      <path
         id="path732"
         style="fill:#03428d;fill-opacity:1;fill-rule:nonzero;stroke:none"
         d="M 0,0 C 1.328,0 1.853,1.205 1.853,2.912 1.853,4.474 1.341,5.574 0,5.574 -1.362,5.574 -2.007,4.428 -2.007,2.799 -2.007,1.158 -1.326,0 0,0 m -0.174,-1.805 c -2.564,0 -4.313,1.927 -4.313,4.402 0,3.372 1.742,4.807 4.487,4.807 2.653,0 4.288,-1.539 4.456,-4.605 C 4.624,-0.064 2.527,-1.805 0,-1.805 l -0.174,0 z" />
    </g>
    <g
       transform="matrix(4.1694756,0,0,-4.1694756,315.71431,945.91685)"
       id="g734">
      <path
         id="path736"
         style="fill:#03428d;fill-opacity:1;fill-rule:nonzero;stroke:none"
         d="m 0,0 0.743,0.005 c 0.972,0 1.607,0.262 1.607,1.027 0,0.787 -0.711,1 -1.607,1 -0.475,0 -0.614,0 -0.764,-0.038 L 0,0 Z m -2.354,3.716 c 0.637,0.116 1.772,0.065 2.838,0.065 1.28,0 2.454,-0.01 3.128,-0.475 C 4.192,2.894 4.751,2.676 4.695,1.255 4.626,-0.282 3.774,-0.502 3.026,-0.777 l 0,-0.06 c 0.597,-0.247 0.842,-0.678 1.07,-1.477 0.274,-0.989 0.9,-2.495 1.082,-2.831 l -2.531,0 C 2.52,-4.888 2.35,-4 2.017,-2.96 1.708,-1.965 1.338,-1.692 0.398,-1.666 L 0.03,-1.706 0,-5.145 l -2.354,0 0,8.861 z" />
    </g>
    <g
       transform="matrix(4.1694756,0,0,-4.1694756,480.26393,945.91685)"
       id="g738">
      <path
         id="path740"
         style="fill:#03428d;fill-opacity:1;fill-rule:nonzero;stroke:none"
         d="m 0,0 0.739,0.005 c 0.984,0 1.611,0.262 1.611,1.027 0,0.787 -0.704,1 -1.611,1 -0.48,0 -0.604,0 -0.759,-0.038 L 0,0 Z m -2.361,3.716 c 0.635,0.116 1.776,0.065 2.831,0.065 1.292,0 2.485,-0.01 3.131,-0.475 C 4.187,2.894 4.746,2.676 4.698,1.255 4.622,-0.282 3.778,-0.502 3.034,-0.777 L 3.017,-0.837 C 3.63,-1.084 3.883,-1.515 4.105,-2.314 4.372,-3.303 5.009,-4.809 5.177,-5.145 l -2.517,0 C 2.518,-4.888 2.336,-4 2.015,-2.96 1.718,-1.965 1.338,-1.692 0.407,-1.666 L 0.02,-1.706 0,-5.145 l -2.361,0 0,8.861 z" />
    </g>
    <g
       transform="matrix(4.1694756,0,0,-4.1694756,395.54893,937.67047)"
       id="g742">
      <path
         id="path744"
         style="fill:#03428d;fill-opacity:1;fill-rule:nonzero;stroke:none"
         d="m 0,0 -2.072,0.013 0,1.644 6.689,0 0,-1.655 -2.172,0 L 2.412,-7.123 0,-7.103 0,0 Z" />
    </g>
    <path
       id="path746"
       style="fill:#03428d;fill-opacity:1;fill-rule:nonzero;stroke:none"
       d="m 521.29991,967.36934 -9.73572,0 0,-36.94572 9.73572,0 0,36.94572 z" />
    <g
       transform="matrix(4.1694756,0,0,-4.1694756,358.6324,952.49796)"
       id="g748">
      <path
         id="path750"
         style="fill:#03428d;fill-opacity:1;fill-rule:nonzero;stroke:none"
         d="M 0,0 1.188,3.439 2.226,0 0,0 Z m 2.684,5.295 -2.944,0 -3.324,-8.841 2.431,0 0.65,1.833 3.356,0 0.64,-1.854 2.603,0.021 -3.412,8.841 z" />
    </g>
    <g
       transform="matrix(4.1694756,0,0,-4.1694756,185.03755,952.49796)"
       id="g752">
      <path
         id="path754"
         style="fill:#03428d;fill-opacity:1;fill-rule:nonzero;stroke:none"
         d="M 0,0 1.182,3.439 2.21,0 0,0 Z m 2.671,5.295 -2.943,0 -3.327,-8.841 2.436,0 0.65,1.833 3.355,0 0.645,-1.854 2.602,0.021 -3.418,8.841 z" />
    </g>
    <g
       transform="matrix(4.1694756,0,0,-4.1694756,546.70493,952.49796)"
       id="g756">
      <path
         id="path758"
         style="fill:#03428d;fill-opacity:1;fill-rule:nonzero;stroke:none"
         d="M 0,0 1.188,3.439 2.217,0 0,0 Z m 2.535,5.295 -2.944,0 -3.318,-8.841 2.433,0 0.637,1.833 3.359,0 0.639,-1.854 2.606,0.021 -3.412,8.841 z" />
    </g>
    <path
       id="path760"
       style="fill:#0091cb;fill-opacity:1;fill-rule:nonzero;stroke:none"
       d="m 572.21755,916.79778 -437.33629,0 0,-2.20566 437.33629,0 0,2.20566 z" />
    <path
       id="path762"
       style="fill:#0091cb;fill-opacity:1;fill-rule:nonzero;stroke:none"
       d="m 572.21755,982.20017 -437.33629,0 0,-2.19732 437.33629,0 0,2.19732 z" />
  </g>
</svg>
