<svg xmlns="http://www.w3.org/2000/svg" width="902.6" height="71.1" viewBox="0 0 902.6 71.1">
  <defs>
    <style>
      .cls-1 {
        fill: #0f1ed2;
      }

      .cls-2 {
        fill: #535a6e;
      }
    </style>
  </defs>
  <g id="レイヤー_2" data-name="レイヤー 2">
    <g id="logos">
      <g>
        <g>
          <path class="cls-1" d="M0,2.2H21.4c4.9,0,10.7,4.6,13.3,7.1L72.3,51V2.2H85.1V68.8H62.7c-4-.1-7.9-.9-12.5-5.4L12.7,21.6V68.8H0V2.2Z"/>
          <path class="cls-1" d="M266.5,69.3a210.7,210.7,0,0,1-46.3,1c-9.1-.8-18-2.7-26.2-7C183.7,58,180.5,46,180.6,35.1s3.1-20.7,12-26.6c5.9-3.8,12.2-5.1,18.9-6.3,18.1-3.2,36.3-2.5,54.1-.5v9.4c-21-4-43-3-50.6,6.6-4.6,6-5.3,12-5.3,17,0,9,3.1,22.7,21.4,25.4,12,1.7,23.8.3,35.4-1.7V69.3Z"/>
          <path class="cls-1" d="M135.4,58.9c1.9.1,30.7.2,40.6,0v10c-19.9.8-39.1,1.1-59.2.2-17.1-.7-20.1-9.3-20.4-17.5V2.2h78.7v9.5H124.2V28.6h46.3v9.3H124.2c0,5,.1,10.7.2,11.7.2,6.5,3.2,8.9,11,9.3Z"/>
        </g>
        <g>
          <path class="cls-2" d="M347.8,52.3,329.1,11.9a1.1,1.1,0,0,0-1.5-.5h0a1.2,1.2,0,0,0-.6,1.4l16.6,41.3a2.2,2.2,0,0,0,3,1.2h0a2.3,2.3,0,0,0,1.2-3Z"/>
          <path class="cls-2" d="M355.6,44.1c-.6-1.8-.8-3.6-.8-8.6s.2-6.9.8-8.6c1.5-4.7,5.2-7.1,10.2-7.1s8.9,2.4,10.4,7.1c.6,1.7.8,3.6.8,8.6s-.2,6.8-.8,8.6c-1.5,4.7-5.3,7.1-10.4,7.1S357.1,48.8,355.6,44.1ZM372.2,43c.4-1.2.7-3.1.7-7.5s-.3-6.4-.7-7.5c-.9-2.9-3-4.5-6.4-4.5a6,6,0,0,0-6.3,4.5,28.1,28.1,0,0,0-.7,7.5,28.7,28.7,0,0,0,.7,7.5,6.1,6.1,0,0,0,6.3,4.5C369.1,47.5,371.3,45.9,372.2,43Z"/>
          <path class="cls-2" d="M382.6,50.7c-.3,0-.4-.2-.4-.5V29.7c0-.3.1-.5.4-.5h2.8c.3,0,.4.2.4.5v2.2h.1a5.8,5.8,0,0,1,5.6-3.2,7.1,7.1,0,0,1,4.3,1.6.5.5,0,0,1,0,.7l-1.6,2.2a.5.5,0,0,1-.6.1,5.4,5.4,0,0,0-3.2-1.1c-3.2,0-4.6,2.6-4.6,6.3V50.2c0,.3-.1.5-.4.5Z"/>
          <path class="cls-2" d="M398.7,34.5c1.2-3.7,4.3-5.7,8.3-5.7a8.2,8.2,0,0,1,7.2,3.6c.2.2.2.4-.1.6l-1.9,1.6c-.2.2-.5.2-.6,0a5.2,5.2,0,0,0-4.6-2.3,4.7,4.7,0,0,0-4.7,3.3,17.3,17.3,0,0,0-.4,4.4,16.9,16.9,0,0,0,.4,4.3,4.6,4.6,0,0,0,4.7,3.4,5.4,5.4,0,0,0,4.6-2.3c.1-.2.4-.2.6-.1l1.9,1.6c.3.3.3.4.1.7a8.4,8.4,0,0,1-7.2,3.6,8.2,8.2,0,0,1-8.3-5.8,18.7,18.7,0,0,1-.6-5.4,19.4,19.4,0,0,1,.6-5.5Z"/>
          <path class="cls-2" d="M432.3,50.7a.5.5,0,0,1-.5-.5V37.7c0-3.4-1.5-5.5-4.7-5.5s-4.8,2.1-4.8,5.3V50.2a.5.5,0,0,1-.4.5H419a.5.5,0,0,1-.4-.5V20.7a.5.5,0,0,1,.4-.5h2.9a.5.5,0,0,1,.4.5v11h0a6.7,6.7,0,0,1,5.9-3c4.6,0,7.3,3.2,7.3,8.1V50.2a.5.5,0,0,1-.4.5Z"/>
          <path class="cls-2" d="M626.6,50.7a.5.5,0,0,1-.4-.5V48.4h0c-1,1.6-3.1,2.8-6.3,2.8s-7-2.1-7-6.5,3-6.6,8.2-6.6h4.7a.3.3,0,0,0,.3-.3V36.3c0-3-1.1-4.2-5-4.2a7.9,7.9,0,0,0-5.1,1.5c-.3.2-.5.2-.6-.1l-1.2-2a.5.5,0,0,1,.1-.7,11.5,11.5,0,0,1,7.1-2.1c6,0,8.3,2.1,8.3,7.3V50.2a.5.5,0,0,1-.5.5Zm-.5-6.9V41.4a.3.3,0,0,0-.3-.3h-4.2c-3.6,0-5.2,1.1-5.2,3.5S618,48,620.8,48s5.3-1.6,5.3-4.2Z"/>
          <path class="cls-2" d="M645,50.7a.5.5,0,0,1-.5-.5V20.7a.5.5,0,0,1,.5-.5h2.8a.5.5,0,0,1,.4.5v11h0a6.6,6.6,0,0,1,6-3c3.6,0,6.2,1.8,7.2,5.2a17.1,17.1,0,0,1,.8,6,17.3,17.3,0,0,1-.8,6.1c-1,3.4-3.6,5.2-7.2,5.2s-5-1.3-6-3h0v2a.5.5,0,0,1-.4.5Zm12.9-6.3a13.6,13.6,0,0,0,.5-4.5,13.3,13.3,0,0,0-.5-4.4,4.9,4.9,0,0,0-9.2,0,12.2,12.2,0,0,0-.5,4.4,12.5,12.5,0,0,0,.5,4.5,4.9,4.9,0,0,0,9.2,0Z"/>
          <path class="cls-2" d="M667.3,50.7a.5.5,0,0,1-.5-.5V29.7a.5.5,0,0,1,.5-.5h2.8a.5.5,0,0,1,.4.5v2.2h.1a5.7,5.7,0,0,1,5.5-3.2,6.6,6.6,0,0,1,4.3,1.6c.2.3.3.4.1.7l-1.6,2.2a.5.5,0,0,1-.6.1,5.5,5.5,0,0,0-3.3-1.1c-3.2,0-4.5,2.6-4.5,6.3V50.2a.5.5,0,0,1-.4.5Z"/>
          <path class="cls-2" d="M685.3,24.8a.5.5,0,0,1-.5-.5V20.7a.5.5,0,0,1,.5-.5h3a.5.5,0,0,1,.4.5v3.6a.5.5,0,0,1-.4.5Zm.1,25.9a.5.5,0,0,1-.5-.5V29.7a.5.5,0,0,1,.5-.5h2.8a.5.5,0,0,1,.4.5V50.2a.5.5,0,0,1-.4.5Z"/>
          <path class="cls-2" d="M694.6,56.1c-.2-.2-.2-.4,0-.7l1.8-1.8c.2-.2.4-.2.7,0a7,7,0,0,0,4.9,2.2c3.5,0,5.3-1.9,5.3-5.8V47.5h0c-1,1.8-2.8,2.9-5.8,2.9a6.8,6.8,0,0,1-7.1-5.2,17.4,17.4,0,0,1-.7-5.6,17.4,17.4,0,0,1,.7-5.6,6.8,6.8,0,0,1,7.1-5.2c3,0,4.8,1.1,5.8,2.9h0v-2a.5.5,0,0,1,.5-.5h2.8a.5.5,0,0,1,.4.5V49.8c0,6-3.2,9.4-9.1,9.4a9.6,9.6,0,0,1-7.3-3.1Zm12.3-12.3a16.1,16.1,0,0,0,.4-4.2,15.6,15.6,0,0,0-.4-4.2,4.7,4.7,0,0,0-8.9,0,12.1,12.1,0,0,0-.6,4.2,12.5,12.5,0,0,0,.6,4.2,4.2,4.2,0,0,0,4.4,3.2A4.4,4.4,0,0,0,706.9,43.8Z"/>
          <path class="cls-2" d="M730.4,50.7a.5.5,0,0,1-.5-.5V37.7c0-3.4-1.5-5.5-4.7-5.5s-4.8,2.1-4.8,5.3V50.2a.5.5,0,0,1-.4.5h-2.9a.5.5,0,0,1-.4-.5V20.7a.5.5,0,0,1,.4-.5H720a.5.5,0,0,1,.4.5v11h0a6.7,6.7,0,0,1,5.9-3c4.6,0,7.3,3.2,7.3,8.1V50.2a.5.5,0,0,1-.4.5Z"/>
          <path class="cls-2" d="M746.3,50.9c-4.1,0-5.6-1.9-5.6-6.1V32.6a.3.3,0,0,0-.3-.3h-1.8a.5.5,0,0,1-.4-.5V29.7a.5.5,0,0,1,.4-.5h1.8c.2,0,.3,0,.3-.2V22.9a.4.4,0,0,1,.4-.4h2.8a.5.5,0,0,1,.5.4V29c0,.2,0,.2.2.2H748a.5.5,0,0,1,.4.5v2.1a.5.5,0,0,1-.4.5h-3.4c-.2,0-.2.1-.2.3V44.7c0,2.2.7,2.7,2.6,2.7h1a.5.5,0,0,1,.4.5v2.6a.4.4,0,0,1-.4.4Z"/>
          <path class="cls-2" d="M753.1,45.4a16,16,0,0,1-.7-5.5,18.7,18.7,0,0,1,.6-5.4,8.2,8.2,0,0,1,8.3-5.8,8.1,8.1,0,0,1,8.2,5.8c.5,1.4.7,2.9.7,6.2a.5.5,0,0,1-.5.4H756.4a.3.3,0,0,0-.3.3,8.9,8.9,0,0,0,.4,2.6,5.2,5.2,0,0,0,5.3,3.7,6.5,6.5,0,0,0,5.4-2.4.6.6,0,0,1,.7-.1l1.8,1.7a.4.4,0,0,1,0,.6,10,10,0,0,1-8.2,3.7c-4.3,0-7.3-2.1-8.4-5.8Zm13-7.3a.3.3,0,0,0,.3-.3,8.8,8.8,0,0,0-.3-2.4,5.2,5.2,0,0,0-9.7,0,8.8,8.8,0,0,0-.3,2.4.3.3,0,0,0,.3.3Z"/>
          <path class="cls-2" d="M775.4,50.7c-.3,0-.4-.2-.4-.5V29.7c0-.3.1-.5.4-.5h2.8a.5.5,0,0,1,.5.5v2.2h0a5.8,5.8,0,0,1,5.6-3.2,7.1,7.1,0,0,1,4.3,1.6.6.6,0,0,1,.1.7L787,33.2c-.1.2-.4.2-.6.1a5.2,5.2,0,0,0-3.2-1.1c-3.2,0-4.5,2.6-4.5,6.3V50.2a.5.5,0,0,1-.5.5Z"/>
          <path class="cls-2" d="M821.6,50.7c-.3,0-.4-.2-.5-.5l-4.8-15.3h-.1l-4.7,15.3a.6.6,0,0,1-.6.5h-2.5a.5.5,0,0,1-.5-.5l-6.6-20.5c-.1-.3,0-.5.3-.5h3c.3,0,.4.1.5.5l4.7,15.5h.1l4.7-15.5c.1-.3.3-.5.5-.5h2.3a.6.6,0,0,1,.6.5l4.8,15.5h.1l4.5-15.5c.1-.4.3-.5.6-.5h2.9c.3,0,.4.2.4.5l-6.7,20.5c-.1.3-.2.5-.5.5Z"/>
          <path class="cls-2" d="M834.3,45.4a18.6,18.6,0,0,1-.7-5.4,19.4,19.4,0,0,1,.7-5.5,8.3,8.3,0,0,1,8.3-5.7c4.1,0,7.2,2.1,8.3,5.7a16.3,16.3,0,0,1,.7,5.5,16.1,16.1,0,0,1-.7,5.4c-1.1,3.6-4.2,5.8-8.3,5.8A8.4,8.4,0,0,1,834.3,45.4Zm13.1-1.1a15.6,15.6,0,0,0,.5-4.4,15.8,15.8,0,0,0-.5-4.3,5,5,0,0,0-9.5,0,15.8,15.8,0,0,0-.5,4.3,15.6,15.6,0,0,0,.5,4.4,5,5,0,0,0,9.5,0Z"/>
          <path class="cls-2" d="M856.7,50.7a.5.5,0,0,1-.4-.5V29.7a.5.5,0,0,1,.4-.5h2.9a.5.5,0,0,1,.4.5v2.2h0a5.8,5.8,0,0,1,5.6-3.2,6.9,6.9,0,0,1,4.3,1.6c.2.3.3.4.1.7l-1.6,2.2a.5.5,0,0,1-.6.1,5.7,5.7,0,0,0-3.3-1.1c-3.2,0-4.5,2.6-4.5,6.3V50.2a.5.5,0,0,1-.4.5Z"/>
          <path class="cls-2" d="M879.9,50.9c-3.7,0-5.2-1.8-5.2-5.6V20.7a.5.5,0,0,1,.5-.5H878c.3,0,.4.2.4.5V45.1c0,1.7.7,2.3,2.1,2.3h.9a.5.5,0,0,1,.4.5v2.6a.4.4,0,0,1-.4.4Z"/>
          <path class="cls-2" d="M899.3,50.7a.5.5,0,0,1-.4-.5v-2h0c-1,1.7-2.8,3-6,3s-6.2-1.8-7.2-5.2a17.3,17.3,0,0,1-.8-6.1,17.1,17.1,0,0,1,.8-6c1-3.4,3.6-5.2,7.2-5.2s5,1.3,6,3h0v-11a.5.5,0,0,1,.4-.5h2.9a.5.5,0,0,1,.4.5V50.2a.5.5,0,0,1-.4.5Zm-.9-6.3a12.5,12.5,0,0,0,.5-4.5,12.2,12.2,0,0,0-.5-4.4,4.4,4.4,0,0,0-4.6-3.3,4.5,4.5,0,0,0-4.6,3.3,13.3,13.3,0,0,0-.5,4.4,13.6,13.6,0,0,0,.5,4.5,4.5,4.5,0,0,0,4.6,3.3A4.4,4.4,0,0,0,898.4,44.4Z"/>
          <path class="cls-2" d="M440.5,45.4a16,16,0,0,1-.7-5.5,18.7,18.7,0,0,1,.6-5.4,8.2,8.2,0,0,1,8.3-5.8c4,0,7.1,2.1,8.2,5.8.5,1.4.7,2.9.7,6.2a.5.5,0,0,1-.5.4H443.8c-.2,0-.2.1-.2.3a9.3,9.3,0,0,0,.3,2.6,5.2,5.2,0,0,0,5.3,3.7,6.5,6.5,0,0,0,5.4-2.4.6.6,0,0,1,.7-.1l1.8,1.7a.4.4,0,0,1,0,.6,10,10,0,0,1-8.2,3.7c-4.3,0-7.3-2.1-8.4-5.8Zm13.1-7.3c.1,0,.2-.1.2-.3a8.8,8.8,0,0,0-.3-2.4,4.7,4.7,0,0,0-4.8-3.3,4.9,4.9,0,0,0-4.9,3.3,8.8,8.8,0,0,0-.3,2.4.3.3,0,0,0,.3.3h9.8Z"/>
          <path class="cls-2" d="M490.1,50.9c-4.1,0-5.7-1.9-5.7-6.1V32.6c0-.2-.1-.3-.2-.3h-1.8c-.3,0-.4-.2-.4-.5V29.7c0-.3.1-.5.4-.5h1.8c.1,0,.2,0,.2-.2V22.9a.5.5,0,0,1,.5-.4h2.8a.4.4,0,0,1,.4.4V29c0,.2.1.2.3.2h3.3a.5.5,0,0,1,.5.5v2.1a.5.5,0,0,1-.5.5h-3.3a.3.3,0,0,0-.3.3V44.7c0,2.2.8,2.7,2.7,2.7h.9a.5.5,0,0,1,.5.5v2.6c0,.3-.2.4-.5.4Z"/>
          <path class="cls-2" d="M498.3,50.7a.5.5,0,0,1-.5-.5V29.7a.5.5,0,0,1,.5-.5h2.8a.5.5,0,0,1,.4.5v2.2h.1a5.7,5.7,0,0,1,5.5-3.2,6.6,6.6,0,0,1,4.3,1.6c.2.3.3.4.1.7l-1.6,2.2a.5.5,0,0,1-.6.1,5.5,5.5,0,0,0-3.3-1.1c-3.2,0-4.5,2.6-4.5,6.3V50.2a.5.5,0,0,1-.4.5Z"/>
          <path class="cls-2" d="M526.7,50.7a.5.5,0,0,1-.4-.5V48.4h-.1c-.9,1.6-3,2.8-6.2,2.8s-7.1-2.1-7.1-6.5,3.1-6.6,8.3-6.6h4.7a.3.3,0,0,0,.3-.3V36.3c0-3-1.1-4.2-5.1-4.2a7.8,7.8,0,0,0-5,1.5c-.3.2-.5.2-.7-.1l-1.1-2a.5.5,0,0,1,.1-.7,11.5,11.5,0,0,1,7.1-2.1c6,0,8.3,2.1,8.3,7.3V50.2a.5.5,0,0,1-.5.5Zm-.5-6.9V41.4a.3.3,0,0,0-.3-.3h-4.2c-3.6,0-5.2,1.1-5.2,3.5s1.6,3.4,4.4,3.4,5.3-1.6,5.3-4.2Z"/>
          <path class="cls-2" d="M542.3,50.9c-4.1,0-5.7-1.9-5.7-6.1V32.6a.3.3,0,0,0-.3-.3h-1.7a.5.5,0,0,1-.5-.5V29.7a.5.5,0,0,1,.5-.5h1.7c.2,0,.3,0,.3-.2V22.9a.5.5,0,0,1,.5-.4h2.8a.4.4,0,0,1,.4.4V29c0,.2.1.2.3.2h3.3c.3,0,.4.2.4.5v2.1c0,.3-.1.5-.4.5h-3.3a.3.3,0,0,0-.3.3V44.7c0,2.2.8,2.7,2.7,2.7h.9c.3,0,.4.2.4.5v2.6c0,.3-.1.4-.4.4Z"/>
          <path class="cls-2" d="M550.4,24.8a.5.5,0,0,1-.5-.5V20.7a.5.5,0,0,1,.5-.5h3a.5.5,0,0,1,.4.5v3.6a.5.5,0,0,1-.4.5Zm.1,25.9a.5.5,0,0,1-.5-.5V29.7a.5.5,0,0,1,.5-.5h2.8a.5.5,0,0,1,.4.5V50.2a.5.5,0,0,1-.4.5Z"/>
          <path class="cls-2" d="M573.4,50.7c-.3,0-.4-.2-.4-.5V37.7c0-3.4-1.6-5.5-4.7-5.5s-4.9,2.1-4.9,5.3V50.2c0,.3-.1.5-.4.5h-2.8a.5.5,0,0,1-.5-.5V29.7a.5.5,0,0,1,.5-.5H563c.3,0,.4.2.4.5v2h.1a6.5,6.5,0,0,1,5.9-3c4.5,0,7.2,3.2,7.2,8.1V50.2c0,.3-.1.5-.4.5Z"/>
          <path class="cls-2" d="M582,56.1c-.2-.2-.2-.4,0-.7l1.8-1.8a.4.4,0,0,1,.6,0,7.4,7.4,0,0,0,5,2.2c3.5,0,5.3-1.9,5.3-5.8V47.5h0c-1,1.8-2.8,2.9-5.9,2.9a6.8,6.8,0,0,1-7-5.2,15,15,0,0,1-.7-5.6,15,15,0,0,1,.7-5.6,6.8,6.8,0,0,1,7-5.2c3.1,0,4.9,1.1,5.9,2.9h0v-2a.5.5,0,0,1,.5-.5H598a.5.5,0,0,1,.4.5V49.8c0,6-3.2,9.4-9.2,9.4a9.5,9.5,0,0,1-7.2-3.1Zm12.2-12.3a12.4,12.4,0,0,0,.5-4.2,12,12,0,0,0-.5-4.2,4.2,4.2,0,0,0-4.4-3.2,4.5,4.5,0,0,0-4.5,3.2,15.5,15.5,0,0,0-.5,4.2,16.1,16.1,0,0,0,.5,4.2,4.7,4.7,0,0,0,8.9,0Z"/>
          <path class="cls-2" d="M461.4,47.6c-.1-.2-.2-.5,0-.6l1.7-1.8a.5.5,0,0,1,.7,0,8.3,8.3,0,0,0,5.7,2.4c2.6,0,4.6-1.1,4.6-3s-.8-2.2-4.8-3.1c-5.6-1.1-7.5-2.8-7.4-6.7s2.8-6.1,7.8-6a11.7,11.7,0,0,1,7.4,2.4c.3.1.3.4.1.6l-1.5,1.9c-.1.2-.4.2-.6.1a8.9,8.9,0,0,0-5.4-1.7c-1.8,0-3.8.9-3.8,2.7s1.4,2.5,5.7,3.3,6.5,3.2,6.5,6.4-2.5,6.7-8.4,6.7a10.3,10.3,0,0,1-8.3-3.6Z"/>
        </g>
      </g>
    </g>
  </g>
</svg>
