<svg xmlns="http://www.w3.org/2000/svg" xmlns:xlink="http://www.w3.org/1999/xlink" id="Layer_1" data-name="Layer 1" viewBox="0 0 534.11 302.88"><defs><style>.cls-1{fill:#002944;}.cls-2{fill:url(#radial-gradient);}</style><radialGradient id="radial-gradient" cx="1028.7" cy="-494.03" r="740.09" gradientTransform="translate(-602.8 468.01) scale(0.8 0.8)" gradientUnits="userSpaceOnUse"><stop offset="0" stop-color="#00adee"></stop><stop offset="0.13" stop-color="#00a1df"></stop><stop offset="0.38" stop-color="#0083b8"></stop><stop offset="0.72" stop-color="#005279"></stop><stop offset="0.98" stop-color="#002944"></stop></radialGradient></defs><path class="cls-1" d="M69,121.77h7.77V159a23.75,23.75,0,0,1-2.18,10.38,19.28,19.28,0,0,1-5.8,7.3,27.57,27.57,0,0,1-7.86,4.14,27.4,27.4,0,0,1-25.2-4.14,19.3,19.3,0,0,1-5.81-7.3A23.89,23.89,0,0,1,27.74,159V121.77h7.77v37.5q0,7.51,5,11.7a17.67,17.67,0,0,0,11.79,4.18A17.66,17.66,0,0,0,64,171q5-4.18,5-11.7Z"></path><path class="cls-1" d="M167.92,121.77h7.77v59.62h-9.57l-34.51-49.12h-.17v49.12h-7.77V121.77h9.57l34.42,49h.26Z"></path><path class="cls-1" d="M322.36,121.77h7.77v59.62h-9.57l-34.51-49.12h-.17v49.12h-7.77V121.77h9.57l34.42,49h.26Z"></path><path class="cls-1" d="M418.8,129H385.23V147.9h30.49v7.27H385.23v19H418.8v7.26H377.45V121.77H418.8Z"></path><path class="cls-1" d="M506.37,121.77V129H457.42v-7.26Z"></path><path class="cls-1" d="M477.32,121.85s8.1-.08,8.1-.08,0,0,0,.08a188.55,188.55,0,0,1,0,59.54h-8.11a183.95,183.95,0,0,0,0-59.54Z"></path><path class="cls-1" d="M227.46,181.24s-8.1.09-8.1.09,0-.06,0-.09a188.55,188.55,0,0,1,0-59.54h8.11a183.95,183.95,0,0,0,0,59.54Z"></path><path class="cls-2" d="M454.13,61.87A133,133,0,0,0,232.4,102.65h-7A135.85,135.85,0,0,1,454.13,61.87Z"></path><path class="cls-2" d="M250.07,241a135.87,135.87,0,0,0,228.44-39.93h-7A133,133,0,0,1,250.07,241Z"></path><rect class="cls-2" x="223.03" y="90.48" width="15.22" height="15.22" rx="7.61"></rect></svg>