<svg xmlns="http://www.w3.org/2000/svg" id="Layer_1" data-name="Layer 1" viewBox="0 0 512 512" class="default-logo" aria-label="logo surya prima sakti" role="img"><defs><style>.cls-1{fill:#f59f06;}.cls-2{fill:#163559;}</style></defs><path class="cls-1" d="M85.3,274.88Q81,270.6,81,263h9.42a8.11,8.11,0,0,0,1.84,5.65,6.49,6.49,0,0,0,5.09,2H105a8.7,8.7,0,0,0,5-1.28,3.94,3.94,0,0,0,1.9-3.43v-2.35q0-3.4-5-4.23l-12.75-2.15c-4.15-.69-7.31-2-9.45-4a9.73,9.73,0,0,1-3.23-7.52v-3.88a11,11,0,0,1,2-6.48,12.68,12.68,0,0,1,5.61-4.33,21.77,21.77,0,0,1,8.42-1.52h7.83a16.49,16.49,0,0,1,8,1.87,13.32,13.32,0,0,1,5.37,5.23,15.53,15.53,0,0,1,1.9,7.79h-9.42a6.71,6.71,0,0,0-1.59-4.67,5.44,5.44,0,0,0-4.23-1.77H97.49a8,8,0,0,0-4.68,1.25,3.89,3.89,0,0,0-1.76,3.32v1.87c0,2.31,1.59,3.75,4.78,4.3l12.68,2.22q6.3,1.11,9.63,3.91a9.06,9.06,0,0,1,3.32,7.24v4.58a10.9,10.9,0,0,1-2,6.51,13.21,13.21,0,0,1-5.72,4.4,21.66,21.66,0,0,1-8.52,1.56h-8Q89.59,279.14,85.3,274.88Z"></path><path class="cls-1" d="M129.36,275.43A14,14,0,0,1,126,265.7V244h9.43v21.82a5.75,5.75,0,0,0,1.14,3.71,3.67,3.67,0,0,0,3,1.42h4a5.71,5.71,0,0,0,4.16-1.9,10.58,10.58,0,0,0,2.63-5V244h9.43v34.57h-8.73v-4.43a13,13,0,0,1-3.92,3.6,8.79,8.79,0,0,1-4.47,1.39h-4.57A11.26,11.26,0,0,1,129.36,275.43Z"></path><path class="cls-1" d="M165.11,244h8.73v4.43a9.87,9.87,0,0,1,3.78-3.29,11.07,11.07,0,0,1,5.16-1.28h4.71v8.18h-4.71a8.22,8.22,0,0,0-6,2.21,7.6,7.6,0,0,0-2.29,5.68v18.64h-9.42Z"></path><path class="cls-1" d="M195.84,289.49a11.71,11.71,0,0,1-4.05-8.28h9.28a3.48,3.48,0,0,0,1.25,2.46,4.1,4.1,0,0,0,2.77.94h5.68a4.21,4.21,0,0,0,3.5-1.77,7.35,7.35,0,0,0,1.35-4.6v-4.51a12.52,12.52,0,0,1-3.64,3.36,7.86,7.86,0,0,1-4,1.21h-4.57a11.35,11.35,0,0,1-8.8-3.63q-3.33-3.65-3.33-9.67V244h9.42v21.13a5.69,5.69,0,0,0,1.15,3.71,3.68,3.68,0,0,0,3,1.42h4a5.74,5.74,0,0,0,4.16-1.91,10.64,10.64,0,0,0,2.63-5V244H225v34.23a15.68,15.68,0,0,1-1.76,7.55,12.56,12.56,0,0,1-5,5.06,15.19,15.19,0,0,1-7.48,1.8h-5.68A13.57,13.57,0,0,1,195.84,289.49Z"></path><path class="cls-1" d="M232.52,276.43a8.75,8.75,0,0,1-3.32-7.13v-2.57a8.44,8.44,0,0,1,3.46-7,14.59,14.59,0,0,1,9.15-2.67H246a17.24,17.24,0,0,1,3.88.49,18.08,18.08,0,0,1,3.82,1.32v-3.61a3.67,3.67,0,0,0-1.15-2.8,4.19,4.19,0,0,0-3-1.08h-6a5,5,0,0,0-3.12.9,2.91,2.91,0,0,0-1.18,2.43h-9.14a10,10,0,0,1,3.71-8.14q3.7-3.09,9.73-3.09h6a14.56,14.56,0,0,1,9.84,3.23,10.73,10.73,0,0,1,3.74,8.55v23.35h-8.73v-4.16a12.33,12.33,0,0,1-4.09,3.43,10.13,10.13,0,0,1-4.78,1.29h-4.3A13.38,13.38,0,0,1,232.52,276.43Zm13.72-4.5a8.16,8.16,0,0,0,4.58-1.32,7.57,7.57,0,0,0,2.91-3.53V265.9a8.57,8.57,0,0,0-3.09-1.31,17.13,17.13,0,0,0-4.19-.49h-4.36a4.25,4.25,0,0,0-2.71.83,2.72,2.72,0,0,0-1,2.22V269a2.57,2.57,0,0,0,1.15,2.15,5,5,0,0,0,3,.83Z"></path><path class="cls-2" d="M82.66,292.33h25.57a16.43,16.43,0,0,1,7.48,1.63,12,12,0,0,1,5.06,4.64,13.2,13.2,0,0,1,1.8,6.9v6.44a13.37,13.37,0,0,1-1.87,7.1,12.61,12.61,0,0,1-5.23,4.78,17.1,17.1,0,0,1-7.8,1.7H92.22v15.31H82.66Zm24.88,24.87a5.33,5.33,0,0,0,3.95-1.55,5.68,5.68,0,0,0,1.52-4.13v-5.61a5.32,5.32,0,0,0-1.35-3.84,4.69,4.69,0,0,0-3.57-1.42H92.22V317.2Z"></path><path class="cls-2" d="M127.56,306.26h8.73v4.43a9.87,9.87,0,0,1,3.78-3.29,11,11,0,0,1,5.16-1.28h4.71v8.17h-4.71a8.19,8.19,0,0,0-6,2.22,7.55,7.55,0,0,0-2.29,5.68v18.64h-9.42Z"></path><path class="cls-2" d="M154.34,301.44a6,6,0,0,1,0-8.24,6.79,6.79,0,0,1,8.66,0,6,6,0,0,1,0,8.24,6.79,6.79,0,0,1-8.66,0Zm-.38,4.82h9.42v34.57H154Z"></path><path class="cls-2" d="M217.84,309.13a12.68,12.68,0,0,1,3.18,9v22.73H211.6V318.1a4.84,4.84,0,0,0-.9-3.08,2.87,2.87,0,0,0-2.36-1.14h-3a4.7,4.7,0,0,0-3.4,1.42,6.42,6.42,0,0,0-1.8,3.77v21.76h-9.42V318.17a5,5,0,0,0-.9-3.11,2.84,2.84,0,0,0-2.36-1.18h-2.7a4.55,4.55,0,0,0-3.54,1.8,9.19,9.19,0,0,0-1.94,4.71v20.44h-9.42V306.26h8.73v4a9.88,9.88,0,0,1,3.22-3.33,7.44,7.44,0,0,1,4-1.25h3.88a8.22,8.22,0,0,1,4.54,1.32,9.15,9.15,0,0,1,3.22,3.67A11.67,11.67,0,0,1,201.1,307a8.31,8.31,0,0,1,4.47-1.32h3.81A11,11,0,0,1,217.84,309.13Z"></path><path class="cls-2" d="M228.09,338.68a8.73,8.73,0,0,1-3.33-7.13V329a8.45,8.45,0,0,1,3.47-7,14.58,14.58,0,0,1,9.14-2.67h4.23a17.31,17.31,0,0,1,3.88.49,18.35,18.35,0,0,1,3.81,1.31v-3.6a3.66,3.66,0,0,0-1.14-2.8,4.22,4.22,0,0,0-3-1.08h-5.95a5,5,0,0,0-3.12.9,2.89,2.89,0,0,0-1.18,2.43h-9.15a10.07,10.07,0,0,1,3.71-8.14q3.7-3.09,9.74-3.09h5.95a14.57,14.57,0,0,1,9.84,3.22,10.72,10.72,0,0,1,3.74,8.56v23.35H250v-4.16a12.29,12.29,0,0,1-4.08,3.43,10.12,10.12,0,0,1-4.78,1.28h-4.3A13.43,13.43,0,0,1,228.09,338.68Zm13.72-4.5a8.13,8.13,0,0,0,4.57-1.32,7.45,7.45,0,0,0,2.91-3.53v-1.18a8.77,8.77,0,0,0-3.08-1.32,17.75,17.75,0,0,0-4.19-.48h-4.37a4.2,4.2,0,0,0-2.7.83,2.71,2.71,0,0,0-1,2.22v1.8a2.56,2.56,0,0,0,1.14,2.15,5.07,5.07,0,0,0,3,.83Z"></path><path class="cls-2" d="M275.34,337.12q-4.29-4.26-4.29-11.88h9.42a8.13,8.13,0,0,0,1.84,5.65,6.49,6.49,0,0,0,5.09,2h7.69a8.66,8.66,0,0,0,5-1.28,4,4,0,0,0,1.91-3.43v-2.36c0-2.26-1.67-3.67-5-4.22l-12.75-2.15q-6.24-1-9.46-4a9.77,9.77,0,0,1-3.22-7.52v-3.88a11,11,0,0,1,2-6.48,12.57,12.57,0,0,1,5.61-4.33,21.74,21.74,0,0,1,8.42-1.52h7.83a16.45,16.45,0,0,1,8,1.87,13.26,13.26,0,0,1,5.37,5.23,15.53,15.53,0,0,1,1.91,7.79h-9.42a6.7,6.7,0,0,0-1.6-4.67,5.4,5.4,0,0,0-4.22-1.77h-7.83a8,8,0,0,0-4.68,1.25,3.87,3.87,0,0,0-1.77,3.32v1.87c0,2.31,1.6,3.74,4.78,4.3l12.68,2.22q6.31,1.1,9.63,3.91a9,9,0,0,1,3.33,7.24v4.57a10.85,10.85,0,0,1-2.05,6.52,13.17,13.17,0,0,1-5.71,4.4,21.66,21.66,0,0,1-8.52,1.55h-8Q279.64,341.38,275.34,337.12Z"></path><path class="cls-2" d="M318.71,338.68a8.75,8.75,0,0,1-3.32-7.13V329a8.44,8.44,0,0,1,3.46-7,14.59,14.59,0,0,1,9.15-2.67h4.22a17.24,17.24,0,0,1,3.88.49,18.65,18.65,0,0,1,3.82,1.31v-3.6a3.67,3.67,0,0,0-1.15-2.8,4.19,4.19,0,0,0-3-1.08h-6a5,5,0,0,0-3.12.9,2.91,2.91,0,0,0-1.18,2.43h-9.14a10,10,0,0,1,3.71-8.14q3.71-3.09,9.73-3.09h6a14.61,14.61,0,0,1,9.84,3.22,10.75,10.75,0,0,1,3.74,8.56v23.35h-8.73v-4.16a12.33,12.33,0,0,1-4.09,3.43,10.12,10.12,0,0,1-4.78,1.28h-4.3A13.43,13.43,0,0,1,318.71,338.68Zm13.72-4.5a8.16,8.16,0,0,0,4.58-1.32,7.57,7.57,0,0,0,2.91-3.53v-1.18a8.74,8.74,0,0,0-3.09-1.32,17.63,17.63,0,0,0-4.19-.48h-4.36a4.25,4.25,0,0,0-2.71.83,2.71,2.71,0,0,0-1,2.22v1.8a2.57,2.57,0,0,0,1.15,2.15,5,5,0,0,0,3,.83Z"></path><path class="cls-2" d="M378.09,340.83,367.28,327l-3.67,3.68v10.18h-9.42v-48.5h9.42V320l13.65-13.78h10.95L373.38,321l15.38,19.88Z"></path><path class="cls-2" d="M399.61,338.06q-2.83-2.78-2.84-8.59V314.29h-6.09v-8h6.37V295.8h9.15v10.46h9v8h-9v14.76a4.52,4.52,0,0,0,.72,2.84,2.83,2.83,0,0,0,2.33.9h5.95v8h-6.65Q402.46,340.83,399.61,338.06Z"></path><path class="cls-2" d="M420.71,301.44a6,6,0,0,1,0-8.24,6.79,6.79,0,0,1,8.66,0,6,6,0,0,1,0,8.24,6.79,6.79,0,0,1-8.66,0Zm-.38,4.82h9.42v34.57h-9.42Z"></path><polygon class="cls-2" points="361.19 220.34 317.89 220.34 339.03 199.2 332.61 192.78 311.47 213.92 311.47 170.62 302.39 170.62 302.39 213.92 281.26 192.78 274.84 199.2 303.72 228.09 332.61 256.97 339.03 250.55 317.89 229.41 361.19 229.41 361.19 220.34"></polygon><polygon class="cls-1" points="252.67 220.34 252.67 229.41 295.98 229.41 274.84 250.55 281.26 256.97 302.39 235.83 302.39 279.14 311.47 279.14 311.47 220.34 252.67 220.34"></polygon></svg>