<svg viewBox="0 0 121.96 34.49" xmlns="http://www.w3.org/2000/svg" id="Layer_1"><defs><style>.cls-1{fill:#fff;}</style></defs><path d="M39.57,7.18c-2.86,0-4.97,1.15-6.13,3.26v-2.83h-4.47V27.89h4.47v-10.78c0-3.66,1.24-6.29,4.7-6.29s3.83,2.68,3.83,5.43v11.65h4.47V15.17c0-4.83-1.99-7.99-6.88-7.99Z" class="cls-1"></path><polygon points="67.32 7.62 61.95 7.62 54.46 15.76 54.46 .57 49.99 .57 49.99 27.89 54.46 27.89 54.46 21.41 56.61 19.11 62.96 27.89 68.19 27.89 59.58 15.95 67.32 7.62" class="cls-1"></polygon><path d="M78.2,15.8l-2.87-.57c-1.77-.34-2.71-1.05-2.71-2.41s1.8-2.22,3.76-2.22c2.26,0,3.95,.72,4.44,2.56h4.21c-.83-4.06-4.44-5.98-8.39-5.98-4.36,0-8.24,2.3-8.24,5.86s2.67,5.2,6.09,5.92l3.05,.6c1.99,.42,3.5,1.13,3.5,2.79s-1.69,2.64-4.06,2.64c-2.67,0-4.14-1.15-4.54-3.26h-4.36c.49,3.8,3.8,6.67,8.76,6.67,4.59,0,8.57-2.34,8.57-6.56,0-3.96-3.12-5.24-7.22-6.03Z" class="cls-1"></path><path d="M95.12,22.16l-4.58-14.55h-4.9l7.35,20.17-.23,.49c-.9,2.64-1.73,2.79-3.68,2.79h-1.69v3.43h2.01c4.55,0,5.87-1.4,7.79-6.63l7.11-20.24h-4.58l-4.58,14.55Z" class="cls-1"></path><path d="M114.74,15.8l-2.87-.57c-1.77-.34-2.71-1.05-2.71-2.41s1.8-2.22,3.76-2.22c2.26,0,3.95,.72,4.44,2.56h4.21c-.83-4.06-4.44-5.98-8.38-5.98-4.36,0-8.24,2.3-8.24,5.86s2.67,5.2,6.09,5.92l3.05,.6c1.99,.42,3.5,1.13,3.5,2.79s-1.69,2.64-4.06,2.64c-2.66,0-4.14-1.15-4.54-3.26h-4.36c.49,3.8,3.8,6.67,8.76,6.67,4.59,0,8.58-2.34,8.58-6.56,0-3.96-3.12-5.24-7.22-6.03Z" class="cls-1"></path><polygon points="4.78 .57 0 .57 0 27.89 18.5 27.89 18.5 23.86 4.78 23.86 4.78 .57" class="cls-1"></polygon><path d="M23.28,0h0c-1.47,0-2.66,1.2-2.66,2.67,0,1.47,1.19,2.67,2.66,2.66,1.47,0,2.66-1.2,2.66-2.67,0-1.47-1.19-2.66-2.66-2.66Z" class="cls-1"></path><rect height="20.28" width="4.45" y="7.62" x="21.06" class="cls-1"></rect></svg>