<svg width="63" height="63" viewBox="0 0 63 63" fill="none" xmlns="http://www.w3.org/2000/svg">
<path d="M52.5 34.3612V18.375C52.5 12.5738 43.1025 7.875 31.5 7.875C19.8975 7.875 10.5 12.5738 10.5 18.375V44.625C10.5 50.4263 19.9237 55.125 31.5 55.125C32.7075 55.125 33.8625 55.125 34.9912 54.9675C34.44 53.3663 34.125 51.66 34.125 49.875V49.7438C33.285 49.875 32.4188 49.875 31.5 49.875C21.3413 49.875 15.75 45.9375 15.75 44.625V38.7713C19.9762 40.8188 25.515 42 31.5 42C33.2062 42 34.8337 41.895 36.435 41.7113C39.1912 37.17 44.1787 34.125 49.875 34.125C50.7675 34.125 51.6338 34.23 52.5 34.3612ZM47.25 32.6812C43.8375 35.175 37.8525 36.75 31.5 36.75C25.1475 36.75 19.1625 35.175 15.75 32.6812V25.305C19.6088 27.4838 25.2262 28.875 31.5 28.875C37.7738 28.875 43.3913 27.4838 47.25 25.305V32.6812ZM31.5 23.625C21.3413 23.625 15.75 19.6875 15.75 18.375C15.75 17.0625 21.3413 13.125 31.5 13.125C41.6588 13.125 47.25 17.0625 47.25 18.375C47.25 19.6875 41.6588 23.625 31.5 23.625ZM53.5762 49.875L59.1675 55.44L55.44 59.1675L49.875 53.5762L44.31 59.1675L40.6088 55.44L46.1738 49.875L40.6088 44.31L44.31 40.6087L49.875 46.1738L55.44 40.6087L59.1675 44.31L53.5762 49.875Z" fill="white"/>
</svg>
