<svg width="63" height="63" viewBox="0 0 63 63" fill="none" xmlns="http://www.w3.org/2000/svg">
<g clip-path="url(#clip0_91_585)">
<path d="M52.5 5.25H10.5C7.60462 5.25 5.25 7.60462 5.25 10.5V36.75C5.25 39.6454 7.60462 42 10.5 42H28.875V52.5H15.75V57.75H47.25V52.5H34.125V42H52.5C55.3954 42 57.75 39.6454 57.75 36.75V10.5C57.75 7.60462 55.3954 5.25 52.5 5.25ZM52.5 10.5L52.4974 21H10.5V10.5H52.5ZM10.5 36.75V26.25H52.4947L52.4921 36.75H10.5Z" fill="white"/>
<path d="M26.25 13.125H13.125V18.375H26.25V13.125Z" fill="white"/>
<path d="M26.25 28.875H13.125V34.125H26.25V28.875Z" fill="white"/>
<path d="M52.5 57.75C53.9497 57.75 55.125 56.5747 55.125 55.125C55.125 53.6753 53.9497 52.5 52.5 52.5C51.0503 52.5 49.875 53.6753 49.875 55.125C49.875 56.5747 51.0503 57.75 52.5 57.75Z" fill="white"/>
<path d="M10.5 57.75C11.9497 57.75 13.125 56.5747 13.125 55.125C13.125 53.6753 11.9497 52.5 10.5 52.5C9.05025 52.5 7.875 53.6753 7.875 55.125C7.875 56.5747 9.05025 57.75 10.5 57.75Z" fill="white"/>
<path d="M39.375 18.375C40.8247 18.375 42 17.1997 42 15.75C42 14.3003 40.8247 13.125 39.375 13.125C37.9253 13.125 36.75 14.3003 36.75 15.75C36.75 17.1997 37.9253 18.375 39.375 18.375Z" fill="white"/>
<path d="M47.25 18.375C48.6997 18.375 49.875 17.1997 49.875 15.75C49.875 14.3003 48.6997 13.125 47.25 13.125C45.8003 13.125 44.625 14.3003 44.625 15.75C44.625 17.1997 45.8003 18.375 47.25 18.375Z" fill="white"/>
<path d="M39.375 34.125C40.8247 34.125 42 32.9497 42 31.5C42 30.0503 40.8247 28.875 39.375 28.875C37.9253 28.875 36.75 30.0503 36.75 31.5C36.75 32.9497 37.9253 34.125 39.375 34.125Z" fill="white"/>
<path d="M47.25 34.125C48.6997 34.125 49.875 32.9497 49.875 31.5C49.875 30.0503 48.6997 28.875 47.25 28.875C45.8003 28.875 44.625 30.0503 44.625 31.5C44.625 32.9497 45.8003 34.125 47.25 34.125Z" fill="white"/>
</g>
<defs>
<clipPath id="clip0_91_585">
<rect width="63" height="63" fill="white"/>
</clipPath>
</defs>
</svg>
