<svg width="63" height="63" viewBox="0 0 63 63" fill="none" xmlns="http://www.w3.org/2000/svg">
<path d="M25.5938 7.875V11.8125H17.7188C14.4811 11.8125 11.8125 14.4811 11.8125 17.7188V25.5938H7.875V37.4062H19.6875V25.5938H15.75V17.7188C15.75 16.6036 16.6036 15.75 17.7188 15.75H25.5938V19.6875H37.4062V7.875H25.5938ZM29.5312 11.8125H33.4688V15.75H29.5312V11.8125ZM39.375 11.8125V15.75H45.2812C46.3964 15.75 47.25 16.6036 47.25 17.7188V25.5938H43.3125V37.4062H55.125V25.5938H51.1875V17.7188C51.1875 14.4811 48.5189 11.8125 45.2812 11.8125H39.375ZM11.8125 29.5312H15.75V33.4688H11.8125V29.5312ZM47.25 29.5312H51.1875V33.4688H47.25V29.5312ZM11.8125 39.375V45.2812C11.8125 48.5189 14.4811 51.1875 17.7188 51.1875H25.5938V55.125H37.4062V43.3125H25.5938V47.25H17.7188C16.6036 47.25 15.75 46.3964 15.75 45.2812V39.375H11.8125ZM47.25 39.375V45.2812C47.25 46.3964 46.3964 47.25 45.2812 47.25H39.375V51.1875H45.2812C48.5189 51.1875 51.1875 48.5189 51.1875 45.2812V39.375H47.25ZM29.5312 47.25H33.4688V51.1875H29.5312V47.25Z" fill="white"/>
</svg>
