<svg width="63" height="63" viewBox="0 0 63 63" fill="none" xmlns="http://www.w3.org/2000/svg">
<path d="M28.98 1.43347C34.7865 1.3101 41.2572 1.69335 45.7275 2.42572C55.6343 4.04535 60.9788 6.8646 61.5274 10.7627C61.6692 11.7786 61.6692 51.3505 61.5248 52.3401C61.1468 54.9598 58.6163 57.073 53.9175 58.6926C51.7099 59.4538 49.5522 59.9657 46.2 60.5327C35.5872 62.3177 23.0397 62.0762 13.1067 59.8922C5.94829 58.3198 2.03179 55.9521 1.19704 52.6971C1.03692 52.0828 1.02904 50.3477 1.09729 31.7627C1.13929 20.449 1.21542 11.1722 1.26792 10.7627C1.68004 7.64685 5.27104 5.18722 11.8125 3.5361C16.8289 2.26822 22.5462 1.56735 28.98 1.43347ZM7.40254 38.0995L6.22129 37.6217C6.11629 37.5797 6.09004 39.0156 6.09004 44.6042V51.6392L6.45229 51.9568C7.37104 52.7627 9.21117 53.6158 11.6025 54.3377C14.0359 55.0753 19.0444 55.9521 22.9425 56.3275C32.9805 57.2935 44.9007 56.3485 52.0485 54.0201C53.5264 53.5397 55.5818 52.5265 56.1488 52.0015L56.595 51.5867V44.5885C56.595 40.7402 56.5819 37.5902 56.5662 37.5902C56.5504 37.5902 56.1567 37.7503 55.692 37.9472C52.0407 39.4855 45.297 40.8163 38.325 41.3702C36.0177 41.554 29.2005 41.6222 26.565 41.4857C18.9027 41.092 11.6393 39.8083 7.40254 38.0995ZM7.11379 17.8922C6.65442 17.6953 6.26329 17.5352 6.23704 17.5352C6.21342 17.5352 6.19504 20.6668 6.19504 24.4941C6.19504 30.5342 6.21604 31.4845 6.35254 31.6813C6.54942 31.957 7.81729 32.7576 8.63367 33.1198C10.3583 33.8811 12.5475 34.498 15.7159 35.1122C21.5828 36.2488 27.993 36.703 34.6448 36.451C39.0338 36.2856 41.6247 36.031 45.4125 35.3852C50.9224 34.4455 54.5213 33.2668 56.1488 31.8677L56.595 31.4845V24.5098C56.595 20.6747 56.5767 17.5352 56.553 17.5352C56.5268 17.5352 56.1278 17.698 55.6632 17.8975C51.9855 19.4725 45.7564 20.7272 38.6925 21.3205C36.5295 21.5016 28.833 21.5698 26.1975 21.4281C21.8978 21.1997 18.2727 20.7508 14.175 19.9397C11.4162 19.3963 8.96704 18.685 7.11379 17.8922ZM38.6138 6.6651C36.6818 6.51547 29.6547 6.38947 27.6675 6.47085C25.4048 6.58635 23.1473 6.7596 20.895 6.98797C14.5557 7.70722 8.50242 9.42922 6.72004 11.0226L6.24754 11.4452L6.72004 11.8652C7.28442 12.3666 9.13504 13.2958 10.4475 13.7368C16.5218 15.7765 26.985 16.858 36.0675 16.3802C45.3522 15.892 53.7128 13.981 56.1619 11.7865L56.5425 11.4452L56.0937 11.0331C54.8389 9.8886 51.492 8.66535 47.3025 7.82272C44.457 7.25047 42.1155 6.9381 38.6138 6.6651ZM18.795 51.7652V46.7252H23.835V51.7652H18.795ZM28.875 51.7652V46.7252H33.915V51.7652H28.875ZM38.955 51.7652V46.7252H43.995V51.7652H38.955ZM18.795 31.6052V26.5652H23.835V31.6052H18.795ZM28.875 31.6052V26.5652H33.915V31.6052H28.875ZM38.955 31.6052V26.5652H43.995V31.6052H38.955Z" fill="white"/>
</svg>
