<svg width="63" height="63" viewBox="0 0 63 63" fill="none" xmlns="http://www.w3.org/2000/svg">
<g clip-path="url(#clip0_91_618)">
<path d="M49.875 7.875H13.125C10.2375 7.875 7.875 10.2375 7.875 13.125V49.875C7.875 52.7625 10.2375 55.125 13.125 55.125H49.875C52.7625 55.125 55.125 52.7625 55.125 49.875V13.125C55.125 10.2375 52.7625 7.875 49.875 7.875ZM49.875 49.875H13.125V13.125H49.875V49.875Z" fill="white"/>
<path d="M23.625 31.5H18.375V44.625H23.625V31.5Z" fill="white"/>
<path d="M44.625 18.375H39.375V44.625H44.625V18.375Z" fill="white"/>
<path d="M34.125 36.75H28.875V44.625H34.125V36.75Z" fill="white"/>
<path d="M34.125 26.25H28.875V31.5H34.125V26.25Z" fill="white"/>
</g>
<defs>
<clipPath id="clip0_91_618">
<rect width="63" height="63" fill="white"/>
</clipPath>
</defs>
</svg>
