<svg width="63" height="63" viewBox="0 0 63 63" fill="none" xmlns="http://www.w3.org/2000/svg">
<path d="M6.51003 13.9652V1.47021H11.445V13.9652H21.525V1.47021H26.46V13.9652H31.4055L31.3662 22.129C31.332 29.3162 31.3058 30.382 31.1509 31.0356C30.3529 34.4691 27.8329 37.2463 24.4913 38.3698L23.94 38.551L23.9374 40.5118C23.9348 42.8271 23.8088 43.5805 23.2129 44.7827C22.4805 46.2947 21.2704 47.5206 19.7663 48.2687C19.2938 48.5023 19.005 48.7123 19.005 48.8147C19.0077 49.2111 19.446 50.7651 19.7348 51.4056C20.4855 53.062 22.1367 54.7761 23.7615 55.5898C25.158 56.2907 26.1135 56.5138 27.72 56.5138C29.2793 56.5138 30.261 56.2933 31.5683 55.6502C33.8757 54.4978 35.5767 52.4162 36.2487 49.9277C36.4797 49.0903 36.4797 49.0641 36.5427 36.8027L36.603 24.5177L36.8367 23.6252C37.275 21.877 38.0678 20.239 39.165 18.811C41.9423 15.2173 46.4573 13.4218 50.946 14.1253C54.8547 14.7317 58.2462 17.152 60.0889 20.6511C60.5955 21.5908 60.9788 22.5883 61.236 23.6252L61.4723 24.5177L61.5038 43.024L61.5353 61.5302H56.6003L56.5688 43.3915C56.5425 26.1505 56.5898 24.8353 56.0858 23.7827C55.9965 23.5937 55.8863 23.4152 55.7577 23.1527C54.7969 21.2128 52.857 19.6483 50.82 19.168C49.938 18.9606 48.132 18.9606 47.25 19.168C45.213 19.6483 43.2732 21.2128 42.3124 23.1527C41.4829 24.8327 41.5433 23.8011 41.4724 37.5377C41.4147 48.7832 41.3937 49.8883 41.2257 50.6102C40.5589 53.4347 39.4144 55.5137 37.4378 57.493C35.4218 59.5063 33.2483 60.6876 30.45 61.2861C29.1953 61.5565 26.2422 61.5565 24.9927 61.2861C21.8138 60.601 18.9368 58.8343 16.9995 56.3826C15.4587 54.4296 14.3798 51.9463 14.1252 49.7702C13.9992 48.673 13.986 48.6467 13.5135 48.4603C12.1722 47.9301 10.5237 46.3866 9.79128 44.9743C9.11403 43.6723 9.01691 43.1815 8.95391 40.7297L8.89878 38.5667L8.31866 38.383C7.99841 38.2806 7.35266 37.9997 6.88016 37.7582C4.40478 36.4825 2.63028 34.309 1.76666 31.4923C1.53041 30.7127 1.52778 30.7022 1.49628 22.339L1.46216 13.9652H6.51003ZM26.355 24.2867V19.0052H6.39453L6.42866 24.439C6.46278 29.8202 6.46803 29.878 6.70691 30.5316C7.25816 31.9438 8.37641 33.0621 9.78866 33.6133C10.4423 33.8548 10.4974 33.8575 15.96 33.8916C19.7873 33.9152 21.6904 33.889 22.1865 33.805C24.0555 33.49 25.725 31.9832 26.1923 30.193C26.3288 29.6653 26.355 28.7203 26.355 24.2867ZM18.9867 40.609L19.0287 39.0602H13.965V40.5565C13.9677 41.9057 13.9913 42.1052 14.2144 42.583C14.5898 43.4676 15.4718 44.0293 16.4325 43.9952C17.43 43.9952 18.2333 43.4965 18.7215 42.5777C18.9105 42.2181 18.9499 41.932 18.9867 40.609Z" fill="white"/>
</svg>
