<svg width="30" height="30" viewBox="0 0 30 30" fill="none" xmlns="http://www.w3.org/2000/svg">
<path d="M15 2.56836C8.13397 2.56836 2.56812 8.13422 2.56812 15.0002C2.56812 21.8663 8.13397 27.4321 15 27.4321C21.866 27.4321 27.4319 21.8663 27.4319 15.0002C27.4319 8.13422 21.866 2.56836 15 2.56836ZM11.9568 20.153H9.43932V12.0516H11.9568V20.153ZM10.6825 11.057C9.88739 11.057 9.37328 10.4937 9.37328 9.79698C9.37328 9.08603 9.90293 8.53955 10.7149 8.53955C11.5268 8.53955 12.0241 9.08603 12.0397 9.79698C12.0397 10.4937 11.5268 11.057 10.6825 11.057ZM21.1512 20.153H18.6337V15.6633C18.6337 14.6182 18.2685 13.9086 17.3582 13.9086C16.6628 13.9086 16.2497 14.389 16.0671 14.8513C15.9997 15.0158 15.9829 15.2489 15.9829 15.4807V20.1517H13.4641V14.6351C13.4641 13.6237 13.4318 12.778 13.3981 12.0503H15.5853L15.7006 13.1756H15.7511C16.0826 12.6472 16.8946 11.8677 18.253 11.8677C19.9093 11.8677 21.1512 12.9775 21.1512 15.3628V20.153Z" fill="#2565AA"/>
</svg>
