<svg width="409" height="409" viewBox="0 0 409 409" fill="none" xmlns="http://www.w3.org/2000/svg">
<path d="M311.928 145.236H303.601V153.563H311.928V145.236Z" fill="#E0E0E0"/>
<path d="M307.29 231.232H298.963V239.56H307.29V231.232Z" fill="#E0E0E0"/>
<path d="M320.46 255.143H307.887V267.715H320.46V255.143Z" fill="#E0E0E0"/>
<path d="M114.324 238.537H101.751V251.11H114.324V238.537Z" fill="#E0E0E0"/>
<path d="M96.2621 227.584H88.1394V235.707H96.2621V227.584Z" fill="#E0E0E0"/>
<path d="M118.389 276.738H110.266V284.861H118.389V276.738Z" fill="#E0E0E0"/>
<path d="M84.1803 168.737H78.2988V174.619H84.1803V168.737Z" fill="#E0E0E0"/>
<path d="M333.106 158.087H329.998V161.195H333.106V158.087Z" fill="#E0E0E0"/>
<path d="M303.478 131.903H298.676V136.704H303.478V131.903Z" fill="#E0E0E0"/>
<path d="M327.846 227.012H323.044V231.813H327.846V227.012Z" fill="#E0E0E0"/>
<path d="M112.123 151.772H103.959V159.936H112.123V151.772Z" fill="#E0E0E0"/>
<path d="M29.0471 149.105L57.2599 149.58L43.5175 131.903L29.0471 149.105Z" fill="#F5F5F5"/>
<path d="M42.1596 162.97H37.3743V167.756H42.1596V162.97Z" fill="#F5F5F5"/>
<path d="M46.724 168.206H41.9387V172.991H46.724V168.206Z" fill="#F5F5F5"/>
<path d="M41.0471 174.643H37.3743V178.316H41.0471V174.643Z" fill="#F5F5F5"/>
<path d="M49.9226 164.115H46.2498V167.788H49.9226V164.115Z" fill="#F5F5F5"/>
<path d="M37.3743 168.614H34.7485V171.24H37.3743V168.614Z" fill="#F5F5F5"/>
<path d="M44.9899 182.937H41.9224V179.862H44.9899V182.937ZM42.3641 182.479H44.5318V180.32H42.3804L42.3641 182.479Z" fill="#F5F5F5"/>
<path d="M49.407 172.729H46.7812V175.355H49.407V172.729Z" fill="#F5F5F5"/>
<path d="M49.5871 146.798L36.131 146.954L35.2639 164.181H49.9879L49.5871 146.798ZM44.8509 161.146H42.2333V158.528H44.8509V161.146Z" fill="#F5F5F5"/>
<path d="M35.7302 318.898L81.4073 319.716L59.1496 290.104L35.7302 318.898Z" fill="#EBEBEB"/>
<path d="M56.9409 342.104H49.2026V350.104H56.9409V342.104Z" fill="#EBEBEB"/>
<path d="M64.3357 350.873H56.5974V358.873H64.3357V350.873Z" fill="#EBEBEB"/>
<path d="M55.1495 361.654H49.2026V367.806H55.1495V361.654Z" fill="#EBEBEB"/>
<path d="M69.5299 344.026H63.583V350.178H69.5299V344.026Z" fill="#EBEBEB"/>
<path d="M49.2027 351.56H44.9573V355.953H49.2027V351.56Z" fill="#EBEBEB"/>
<path d="M61.5626 375.536H56.5728V370.382H61.5626V375.536ZM57.3171 374.775H60.8182V371.143H57.3171V374.775Z" fill="#EBEBEB"/>
<path d="M68.6793 358.439H64.4338V362.832H68.6793V358.439Z" fill="#EBEBEB"/>
<path d="M68.9818 315.037L47.1903 315.307L45.8079 344.141H69.6035L68.9818 315.037ZM61.3499 339.029H57.0717V334.644H61.3499V339.029Z" fill="#EBEBEB"/>
<path d="M45.8079 62.6589L92.9574 63.4769L70.0043 33.9062L45.8079 62.6589Z" fill="#E0E0E0"/>
<path d="M67.7221 85.8247H59.7302V93.8166H67.7221V85.8247Z" fill="#E0E0E0"/>
<path d="M75.3542 94.5771H67.3623V102.569H75.3542V94.5771Z" fill="#E0E0E0"/>
<path d="M65.8652 105.342H59.7302V111.477H65.8652V105.342Z" fill="#E0E0E0"/>
<path d="M80.7119 87.7471H74.5769V93.8821H80.7119V87.7471Z" fill="#E0E0E0"/>
<path d="M59.7302 95.2725H55.3457V99.6569H59.7302V95.2725Z" fill="#E0E0E0"/>
<path d="M72.4829 119.199H67.3376V114.054H72.4829V119.199ZM68.1066 118.438H71.7221V114.823H68.1066V118.438Z" fill="#E0E0E0"/>
<path d="M79.8366 102.136H75.4521V106.52H79.8366V102.136Z" fill="#E0E0E0"/>
<path d="M80.1639 58.8062L57.6689 59.0761L56.2292 87.8615H80.7938L80.1639 58.8062ZM72.2539 82.7572H67.8939V78.3727H72.2784L72.2539 82.7572Z" fill="#E0E0E0"/>
<path d="M296.934 310.407L337.433 311.086L317.703 285.728L296.934 310.407Z" fill="#F5F5F5"/>
<path d="M315.715 330.309H308.852V337.172H315.715V330.309Z" fill="#F5F5F5"/>
<path d="M322.267 337.818H315.404V344.681H322.267V337.818Z" fill="#F5F5F5"/>
<path d="M314.128 347.061H308.852V352.337H314.128V347.061Z" fill="#F5F5F5"/>
<path d="M326.873 331.953H321.597V337.229H326.873V331.953Z" fill="#F5F5F5"/>
<path d="M308.844 338.415H305.081V342.178H308.844V338.415Z" fill="#F5F5F5"/>
<path d="M319.838 358.971H315.421V354.554H319.838V358.971ZM316.075 358.317H319.183V355.209H316.075V358.317Z" fill="#F5F5F5"/>
<path d="M326.112 344.312H322.349V348.075H326.112V344.312Z" fill="#F5F5F5"/>
<path d="M326.382 307.094L307.061 307.323L305.817 332.051H326.93L326.382 307.094ZM319.584 327.666H315.813V323.928H319.584V327.666Z" fill="#F5F5F5"/>
<path d="M283.952 47.1415L324.451 47.8204L304.713 22.4624L283.952 47.1415Z" fill="#F5F5F5"/>
<path d="M302.758 67.0435H295.895V73.9065H302.758V67.0435Z" fill="#F5F5F5"/>
<path d="M309.31 74.5527H302.447V81.4158H309.31V74.5527Z" fill="#F5F5F5"/>
<path d="M301.171 83.7959H295.895V89.072H301.171V83.7959Z" fill="#F5F5F5"/>
<path d="M313.924 68.6875H308.648V73.9636H313.924V68.6875Z" fill="#F5F5F5"/>
<path d="M295.895 75.1499H292.132V78.9127H295.895V75.1499Z" fill="#F5F5F5"/>
<path d="M306.848 95.7063H302.431V91.2891H306.848V95.7063ZM303.085 95.0519H306.194V91.9435H303.085V95.0519Z" fill="#F5F5F5"/>
<path d="M313.163 81.0474H309.4V84.8102H313.163V81.0474Z" fill="#F5F5F5"/>
<path d="M313.433 43.8286L294.112 44.0577L292.844 68.7858H313.965L313.433 43.8286ZM306.635 64.4013H302.873V60.6385H306.635V64.4013Z" fill="#F5F5F5"/>
<path d="M337.744 186.831L384.452 187.649L361.695 158.381L337.744 186.831Z" fill="#EBEBEB"/>
<path d="M359.437 209.784H351.519V217.702H359.437V209.784Z" fill="#EBEBEB"/>
<path d="M366.996 218.455H359.077V226.373H366.996V218.455Z" fill="#EBEBEB"/>
<path d="M357.605 229.114H351.519V235.2H357.605V229.114Z" fill="#EBEBEB"/>
<path d="M372.312 211.682H366.227V217.768H372.312V211.682Z" fill="#EBEBEB"/>
<path d="M351.519 219.142H347.176V223.486H351.519V219.142Z" fill="#EBEBEB"/>
<path d="M364.157 242.848H359.102V237.752H364.198L364.157 242.848ZM359.814 242.096H363.405V238.505H359.814V242.096Z" fill="#EBEBEB"/>
<path d="M371.437 225.94H367.094V230.284H371.437V225.94Z" fill="#EBEBEB"/>
<path d="M371.748 183.011L349.466 183.281L348.034 211.797H372.386L371.748 183.011ZM363.912 206.733H359.568V202.39H363.912V206.733Z" fill="#EBEBEB"/>
<path d="M389.761 393.769C389.761 393.892 309.597 393.982 210.619 393.982C111.641 393.982 31.4766 393.892 31.4766 393.769C31.4766 393.646 111.641 393.556 210.619 393.556C309.597 393.556 389.761 393.654 389.761 393.769Z" fill="#263238"/>
<path d="M259.306 393.769L148.058 393.712C134.675 393.712 123.829 383.356 123.837 370.603L123.886 104.753C123.886 91.9924 134.749 81.6447 148.14 81.6528L259.388 81.7183C272.77 81.7183 283.617 92.066 283.609 104.819L283.56 370.669C283.527 383.438 272.672 393.777 259.306 393.769Z" fill="#263238"/>
<path d="M258.488 91.0679H236.934H173.948H147.453C138.078 91.0679 130.471 98.299 130.471 107.24L130.414 366.726C130.414 375.658 138.013 382.906 147.379 382.906L258.439 382.971C267.813 382.971 275.421 375.732 275.421 366.799L275.478 107.305C275.478 98.3153 267.887 91.0761 258.488 91.0679Z" fill="white"/>
<path d="M250.341 114.037H242.995V120.728H250.341V114.037Z" fill="url(#paint0_linear_31_321)"/>
<path d="M171.06 113.416H167.968V115.853H171.06V113.416Z" fill="url(#paint1_linear_31_321)"/>
<path d="M243.028 108.908H239.936V111.346H243.028V108.908Z" fill="url(#paint2_linear_31_321)"/>
<path d="M218.087 96.5239H213.375V100.884H218.087V96.5239Z" fill="url(#paint3_linear_31_321)"/>
<path d="M168.974 120.843H159.804V128.925H168.974V120.843Z" fill="url(#paint4_linear_31_321)"/>
<path d="M198.995 103.076H196.042V105.514H198.995V103.076Z" fill="url(#paint5_linear_31_321)"/>
<path d="M235.993 108.949H177.326L176.647 241.277H235.993V108.949Z" fill="url(#paint6_linear_31_321)"/>
<path d="M209.277 107.706H202.897V112.974H209.277V107.706Z" fill="white"/>
<path d="M227.576 107.788H221.449V116.458H227.576V107.788Z" fill="white"/>
<path d="M232.631 107.657H228.582V114.97H232.631V107.657Z" fill="white"/>
<path d="M183.698 108.058H178.226V115.853H183.698V108.058Z" fill="white"/>
<path d="M192.361 108.589H189.383V114.037H192.361V108.589Z" fill="white"/>
<path d="M218.357 105.653H212.541V110.446H218.357V105.653Z" fill="url(#paint7_linear_31_321)"/>
<path d="M204.41 72.5485C204.4 73.0316 204.248 73.5012 203.973 73.8982C203.697 74.2953 203.311 74.6022 202.862 74.7804C202.412 74.9586 201.921 75.0003 201.448 74.9001C200.975 74.8 200.542 74.5625 200.204 74.2174C199.866 73.8723 199.637 73.435 199.546 72.9604C199.455 72.4858 199.507 71.9949 199.694 71.5493C199.881 71.1038 200.195 70.7234 200.598 70.4558C201 70.1883 201.473 70.0455 201.956 70.0454C202.282 70.0453 202.606 70.1104 202.907 70.2368C203.208 70.3632 203.48 70.5483 203.709 70.7814C203.937 71.0145 204.117 71.2909 204.237 71.5943C204.358 71.8977 204.416 72.2221 204.41 72.5485Z" fill="url(#paint8_linear_31_321)"/>
<path d="M155.387 64.4256C156.752 64.4256 157.858 63.3049 157.858 61.9225C157.858 60.5401 156.752 59.4194 155.387 59.4194C154.023 59.4194 152.917 60.5401 152.917 61.9225C152.917 63.3049 154.023 64.4256 155.387 64.4256Z" fill="url(#paint9_linear_31_321)"/>
<path d="M177.833 110.364H177.015L177.67 68.1065H149.154L149.808 67.4193C149.997 67.223 154.422 62.5113 155.461 61.7915L155.943 62.4459C155.265 62.9531 152.737 65.5379 151.035 67.2885H178.479L177.833 110.364Z" fill="url(#paint10_linear_31_321)"/>
<path d="M162.937 56.7774C162.97 57.2684 162.855 57.758 162.606 58.1824C162.357 58.6069 161.986 58.9468 161.541 59.1578C161.097 59.3689 160.599 59.4414 160.113 59.366C159.627 59.2907 159.174 59.0708 158.815 58.735C158.455 58.3993 158.204 57.9631 158.096 57.4832C157.987 57.0032 158.025 56.5017 158.205 56.0437C158.385 55.5857 158.698 55.1923 159.105 54.9147C159.511 54.6371 159.991 54.4881 160.483 54.487C161.112 54.4671 161.723 54.6969 162.183 55.126C162.643 55.5552 162.914 56.1489 162.937 56.7774Z" fill="url(#paint11_linear_31_321)"/>
<path d="M167.502 51.0265C167.535 51.5175 167.419 52.007 167.17 52.4315C166.921 52.856 166.55 53.1958 166.106 53.4069C165.661 53.6179 165.164 53.6905 164.677 53.6151C164.191 53.5397 163.739 53.3198 163.379 52.9841C163.019 52.6483 162.769 52.2121 162.66 51.7322C162.551 51.2522 162.589 50.7507 162.769 50.2927C162.949 49.8347 163.263 49.4413 163.669 49.1638C164.075 48.8862 164.556 48.7371 165.048 48.7361C165.677 48.7162 166.288 48.9459 166.747 49.3751C167.207 49.8042 167.478 50.3979 167.502 51.0265Z" fill="url(#paint12_linear_31_321)"/>
<path d="M181.858 39.9426C183.028 39.9426 183.976 38.9172 183.976 37.6522C183.976 36.3873 183.028 35.3618 181.858 35.3618C180.688 35.3618 179.739 36.3873 179.739 37.6522C179.739 38.9172 180.688 39.9426 181.858 39.9426Z" fill="url(#paint13_linear_31_321)"/>
<path d="M204.173 39.9755C204.17 40.4245 204.033 40.8626 203.782 41.2344C203.53 41.6062 203.173 41.8951 202.758 42.0647C202.342 42.2343 201.885 42.277 201.445 42.1874C201.005 42.0978 200.601 41.88 200.285 41.5613C199.969 41.2426 199.754 40.8374 199.667 40.3968C199.581 39.9561 199.627 39.4997 199.799 39.0851C199.972 38.6705 200.263 38.3164 200.637 38.0672C201.011 37.818 201.45 37.6851 201.899 37.6851C202.503 37.6894 203.082 37.9326 203.508 38.3617C203.934 38.7907 204.173 39.3708 204.173 39.9755Z" fill="url(#paint14_linear_31_321)"/>
<path d="M208.876 21.2679C208.871 21.715 208.734 22.1507 208.483 22.52C208.231 22.8894 207.875 23.176 207.461 23.3437C207.046 23.5115 206.591 23.5529 206.154 23.4627C205.716 23.3725 205.314 23.1548 205 22.837C204.685 22.5191 204.472 22.1153 204.387 21.6765C204.301 21.2376 204.347 20.7833 204.52 20.3707C204.692 19.9581 204.982 19.6057 205.354 19.3578C205.726 19.1099 206.163 18.9776 206.61 18.9775C207.214 18.9819 207.792 19.2253 208.217 19.6546C208.641 20.0839 208.878 20.6641 208.876 21.2679Z" fill="url(#paint15_linear_31_321)"/>
<path d="M220.884 27.4519C222.109 27.4519 223.101 26.4264 223.101 25.1615C223.101 23.8965 222.109 22.8711 220.884 22.8711C219.66 22.8711 218.668 23.8965 218.668 25.1615C218.668 26.4264 219.66 27.4519 220.884 27.4519Z" fill="url(#paint16_linear_31_321)"/>
<path d="M244.582 46.405C244.549 46.8167 244.396 47.2098 244.143 47.5362C243.89 47.8626 243.548 48.1083 243.157 48.2433C242.767 48.3783 242.346 48.3966 241.945 48.2962C241.544 48.1957 241.182 47.9808 240.901 47.6776C240.621 47.3745 240.435 46.9962 240.365 46.589C240.296 46.1818 240.347 45.7633 240.512 45.3846C240.677 45.0058 240.948 44.6833 241.294 44.4563C241.639 44.2294 242.042 44.1078 242.455 44.1064C242.746 44.117 243.032 44.1849 243.296 44.3062C243.561 44.4276 243.799 44.6 243.997 44.8136C244.194 45.0272 244.348 45.2778 244.448 45.5509C244.549 45.824 244.594 46.1143 244.582 46.405Z" fill="url(#paint17_linear_31_321)"/>
<path d="M212.729 51.9999C212.713 52.4328 212.57 52.8515 212.318 53.2038C212.066 53.5561 211.715 53.8264 211.311 53.9811C210.906 54.1358 210.465 54.168 210.042 54.0738C209.619 53.9796 209.233 53.763 208.932 53.4511C208.631 53.1392 208.429 52.7458 208.35 52.3197C208.272 51.8937 208.32 51.4539 208.489 51.0551C208.658 50.6562 208.941 50.316 209.302 50.0768C209.664 49.8375 210.087 49.7098 210.521 49.7095C210.816 49.7148 211.107 49.7783 211.378 49.8963C211.649 50.0143 211.894 50.1845 212.099 50.3971C212.304 50.6098 212.466 50.8609 212.574 51.1359C212.682 51.4109 212.735 51.7045 212.729 51.9999Z" fill="url(#paint18_linear_31_321)"/>
<path d="M222.545 51.2473C222.527 51.6802 222.383 52.0984 222.129 52.4497C221.876 52.801 221.524 53.07 221.119 53.2232C220.714 53.3764 220.273 53.4071 219.85 53.3113C219.427 53.2155 219.042 52.9976 218.743 52.6846C218.443 52.3716 218.242 51.9775 218.165 51.5512C218.088 51.1248 218.138 50.6852 218.308 50.287C218.479 49.8888 218.763 49.5496 219.125 49.3117C219.487 49.0737 219.911 48.9475 220.345 48.9487C220.64 48.954 220.932 49.0178 221.203 49.1364C221.474 49.255 221.719 49.4261 221.923 49.6398C222.128 49.8535 222.288 50.1055 222.395 50.3814C222.502 50.6573 222.553 50.9516 222.545 51.2473Z" fill="url(#paint19_linear_31_321)"/>
<path d="M249.662 56.9328C250.832 56.9328 251.78 55.9074 251.78 54.6425C251.78 53.3775 250.832 52.3521 249.662 52.3521C248.492 52.3521 247.543 53.3775 247.543 54.6425C247.543 55.9074 248.492 56.9328 249.662 56.9328Z" fill="url(#paint20_linear_31_321)"/>
<path d="M215.6 16.3597C215.595 16.8072 215.458 17.2431 215.206 17.6127C214.954 17.9822 214.598 18.2688 214.183 18.4363C213.768 18.6038 213.313 18.6447 212.874 18.5539C212.436 18.463 212.035 18.2445 211.721 17.9258C211.407 17.6072 211.194 17.2027 211.109 16.7633C211.025 16.3239 211.072 15.8693 211.246 15.4569C211.419 15.0444 211.711 14.6925 212.084 14.4456C212.457 14.1987 212.895 14.0678 213.343 14.0694C213.945 14.0758 214.52 14.3202 214.943 14.7493C215.366 15.1784 215.602 15.7573 215.6 16.3597Z" fill="url(#paint21_linear_31_321)"/>
<path d="M193.203 113.628H192.385V86.7081C191.698 86.1927 188.197 84.0823 186.013 82.7817L185.809 82.6672V61.8981L169.547 61.71L162.185 56.7038L162.651 56.0249L169.776 60.9329L186.602 61.121V82.2336C193.146 86.1355 193.146 86.2664 193.146 86.5608L193.203 113.628Z" fill="url(#paint22_linear_31_321)"/>
<path d="M202.929 111.82H202.111V83.9185L194.226 78.3888V53.9224L176.582 42.3313C173.211 45.4725 168.328 50.0614 168.066 50.3723L167.436 49.8406C167.804 49.407 175.395 42.315 176.254 41.5133L176.492 41.2925L195.052 53.4807V77.9634L202.937 83.4931L202.929 111.82Z" fill="url(#paint23_linear_31_321)"/>
<path d="M202.357 73.0556H201.539V47.5258L213.007 40.0984V18.5195H213.825V40.5401L202.357 47.9675V73.0556Z" fill="url(#paint24_linear_31_321)"/>
<path d="M202.308 39.9757H201.49V28.5401L206.201 26.2088V21.2354H207.019V26.716L202.308 29.0473V39.9757Z" fill="url(#paint25_linear_31_321)"/>
<path d="M210.054 112.524H209.236V81.3664L215.796 75.575V71.5504L210.299 66.577V53.7017H211.117V66.2089L216.614 71.1905V75.9431L210.054 81.7345V112.524Z" fill="url(#paint26_linear_31_321)"/>
<path d="M221.449 51.2476H220.631V115.223H221.449V51.2476Z" fill="url(#paint27_linear_31_321)"/>
<path d="M228.484 116.254H227.666L227.821 61.2026L238.619 54.356H249.932V55.174H238.856L228.639 61.6607L228.484 116.254Z" fill="url(#paint28_linear_31_321)"/>
<path d="M236.075 122.275H235.257V66.847L261.138 66.1844L250.202 56.1885L250.75 55.5913L263.192 66.9533L236.075 67.6405V122.275Z" fill="url(#paint29_linear_31_321)"/>
<path d="M242.946 46.9122L233.285 45.129L221.678 33.1535V33.0308C221.351 31.2884 220.296 25.5706 220.296 25.1616H221.114C221.114 25.5134 221.932 29.9633 222.455 32.769L233.768 44.3764L243.175 46.1188L242.946 46.9122Z" fill="url(#paint30_linear_31_321)"/>
<path d="M183.314 37.0961L183.068 36.319L189.67 34.225L194.921 28.9979L190.545 26.0286L206.594 9.48047L212.999 15.3046L212.451 15.9099L206.627 10.6175L191.813 25.8977L196.205 28.8752L190.103 34.9448L183.314 37.0961Z" fill="url(#paint31_linear_31_321)"/>
<path d="M250.341 128.925H244.124V135.142H250.341V128.925Z" fill="url(#paint32_linear_31_321)"/>
<path d="M156.737 119.093H149.694V112.066H156.737V119.093ZM150.512 118.275H155.919V112.884H150.512V118.275Z" fill="url(#paint33_linear_31_321)"/>
<path d="M111.592 189.931H99.158V202.365H111.592V189.931Z" fill="#263238"/>
<path d="M310.415 191.559H297.981V203.993H310.415V191.559Z" fill="#263238"/>
<path d="M292.01 166.814H288.901V169.923H292.01V166.814Z" fill="#263238"/>
<path d="M260.32 158.062H254.292V164.091H260.32V158.062Z" fill="#455A64"/>
<path d="M252.795 152.287H249.114V155.968H252.795V152.287Z" fill="#455A64"/>
<path d="M265.94 140.909H261.449V136.41H265.94V140.909ZM262.267 140.091H265.122V137.228H262.267V140.091Z" fill="#455A64"/>
<path d="M300.664 176.811H295.036V171.191H300.664V176.811ZM295.854 175.993H299.846V172.009H295.854V175.993Z" fill="#263238"/>
<path d="M87.1006 189.392H81.481V183.772H87.1006V189.392ZM82.299 188.574H86.2826V184.59H82.299V188.574Z" fill="#263238"/>
<path d="M151.886 176.655H143.723V184.819H151.886V176.655Z" fill="#455A64"/>
<path d="M156.025 163.125H151.878V167.273H156.025V163.125Z" fill="#455A64"/>
<path d="M111.534 135.338H107.387V139.485H111.534V135.338Z" fill="#263238"/>
<path d="M317.098 207.224H312.95V211.371H317.098V207.224Z" fill="#263238"/>
<path d="M99.6814 210.741H95.5342V214.888H99.6814V210.741Z" fill="#263238"/>
<path d="M147.175 153.04H140.115V160.099H147.175V153.04Z" fill="#455A64"/>
<path d="M165.907 150.062H159.51V143.641H165.939L165.907 150.062ZM160.295 149.244H165.089V144.459H160.328L160.295 149.244Z" fill="#455A64"/>
<path d="M174.708 221.907L139.068 238.921L146.062 326.603L145.252 382.906L255.56 382.971L254.954 334.398L258.087 314.799L272.827 238.921L231.191 220.811L222.84 215.183L181.326 215.281L174.708 221.907Z" fill="#E0E0E0"/>
<g opacity="0.2">
<path d="M145.072 360.844C146.913 363.176 150.406 363.298 153.318 362.685C163.134 360.73 172.042 353.687 181.948 354.865C188.287 355.634 194.463 359.773 200.598 358.014C202.717 357.409 204.631 356.116 206.807 355.814C209.997 355.372 213.024 357.09 215.878 358.57C228.009 364.85 241.569 367.853 255.216 367.282L260.787 352.444L210.889 339.503L170.897 337.212L145.113 352.28L145.072 360.844Z" fill="black"/>
</g>
<path d="M198.43 382.906C198.316 382.906 198.913 352.542 199.772 315.102C200.631 277.662 201.408 247.29 201.539 247.298C201.67 247.306 201.056 277.654 200.197 315.11C199.338 352.566 198.553 382.914 198.43 382.906Z" fill="#263238"/>
<path d="M271.265 238.921C271.265 238.921 280.656 241.465 285.596 261.883C287.682 270.472 298.537 342.047 297.048 352.01C295.56 361.973 280.509 372.092 257.989 368.967C245.564 367.241 224.173 356.321 224.173 356.321L240.672 334.325H256.525L262.791 329.629L257.735 310.235C257.735 310.235 267.584 245.212 271.265 238.921Z" fill="#E0E0E0"/>
<path d="M285.597 330.611C285.556 330.685 284.411 329.924 282.439 328.975C279.888 327.659 277.114 326.827 274.259 326.521C272.694 326.399 271.12 326.49 269.58 326.791L268.549 327.028C268.222 327.118 267.911 327.233 267.601 327.323C267.044 327.509 266.498 327.725 265.965 327.969C263.969 328.885 262.856 329.711 262.807 329.605C263.039 329.379 263.294 329.179 263.568 329.008C264.287 328.504 265.044 328.058 265.834 327.675C266.379 327.402 266.942 327.167 267.519 326.971C267.83 326.865 268.149 326.734 268.484 326.644L269.531 326.382C271.106 326.051 272.72 325.946 274.325 326.071C277.227 326.363 280.04 327.24 282.595 328.648C283.369 329.059 284.12 329.513 284.844 330.006C285.118 330.177 285.371 330.38 285.597 330.611Z" fill="#263238"/>
<path d="M246.071 334.399C246.299 334.35 246.533 334.331 246.766 334.341L248.705 334.284L255.65 334.21H255.551L261.825 330.169L261.768 330.219C262.194 329.72 262.627 329.18 263.134 328.689C264.032 327.755 265.025 326.916 266.095 326.186C268.778 324.327 271.861 323.125 275.093 322.677C276.448 322.484 277.819 322.434 279.183 322.529C279.666 322.57 280.001 322.636 280.288 322.668C280.419 322.677 280.549 322.705 280.672 322.75C280.173 322.761 279.673 322.745 279.175 322.701C275.803 322.605 272.456 323.308 269.408 324.754C268.34 325.259 267.317 325.853 266.349 326.529C265.302 327.246 264.332 328.068 263.453 328.983C262.963 329.466 262.537 329.998 262.12 330.48L255.748 334.562H255.69L248.746 334.488L246.807 334.439C246.561 334.447 246.315 334.433 246.071 334.399Z" fill="#263238"/>
<path d="M201.539 247.298C201.55 247.335 201.55 247.375 201.539 247.412C201.536 247.439 201.528 247.465 201.513 247.488C201.499 247.51 201.48 247.529 201.457 247.543C201.423 247.558 201.387 247.565 201.351 247.565C201.314 247.565 201.278 247.558 201.244 247.543C200.839 247.361 200.47 247.106 200.156 246.791C198.965 245.666 197.839 244.472 196.786 243.216C194.038 240.042 190.373 235.429 186.267 229.989H186.569C186.167 230.543 185.834 231.145 185.58 231.781C185.277 232.435 184.999 233.122 184.762 233.809C184.214 235.2 183.69 236.639 183.183 238.104C182.316 240.656 181.481 243.159 180.917 245.539L180.794 246.046L180.533 245.605C177.535 240.482 175.628 234.795 174.929 228.901C174.724 227.188 174.629 225.464 174.643 223.74C174.643 223.134 174.643 222.668 174.7 222.357C174.701 222.195 174.715 222.034 174.741 221.875C174.76 222.035 174.76 222.197 174.741 222.357C174.741 222.668 174.741 223.134 174.741 223.74C174.78 225.455 174.914 227.167 175.142 228.868C175.927 234.704 177.874 240.322 180.868 245.392L180.483 245.449C181.056 242.995 181.882 240.541 182.758 237.965C183.265 236.492 183.788 235.044 184.344 233.654C184.623 232.958 184.901 232.279 185.203 231.609C185.478 230.925 185.844 230.281 186.291 229.695L186.447 229.515L186.602 229.719C190.692 235.175 194.308 239.813 196.991 243.02C198.332 244.656 199.445 245.875 200.263 246.66C200.554 246.986 200.897 247.262 201.277 247.478C201.416 247.535 201.506 247.478 201.522 247.396C201.539 247.314 201.522 247.29 201.539 247.298Z" fill="#263238"/>
<path d="M231.191 220.811C231.223 220.956 231.236 221.104 231.232 221.253C231.232 221.547 231.232 221.973 231.232 222.537C231.232 223.649 231.167 225.286 230.987 227.314C230.659 231.404 229.694 237.048 228.672 243.56L228.598 244.042L228.304 243.65C226.839 241.711 225.424 239.56 223.96 237.286C222.815 235.535 221.686 233.834 220.5 232.255L220.786 232.296C215.134 236.386 210.054 239.797 206.741 242.66C205.064 244.05 203.764 245.22 202.88 246.038L201.874 246.979C201.762 247.094 201.642 247.201 201.514 247.298C201.514 247.298 201.604 247.159 201.817 246.93C202.029 246.701 202.357 246.357 202.782 245.932C203.6 245.114 204.909 243.879 206.569 242.447C209.841 239.527 214.897 236.059 220.549 231.952L220.713 231.838L220.835 232.001C222.03 233.588 223.175 235.273 224.32 237.057C225.776 239.298 227.183 241.474 228.631 243.404L228.263 243.494C229.318 236.95 230.324 231.347 230.717 227.29C230.929 225.269 231.044 223.65 231.085 222.529C231.085 221.973 231.085 221.547 231.085 221.253C231.105 221.102 231.141 220.954 231.191 220.811Z" fill="#263238"/>
<path d="M252.394 282.603C252.394 282.717 245.907 282.218 237.932 281.49C229.956 280.762 223.494 280.075 223.51 279.952C223.527 279.83 229.989 280.337 237.973 281.065C245.956 281.793 252.402 282.48 252.394 282.603Z" fill="#263238"/>
<path d="M180.721 183.985C178.34 176.958 175.993 169.882 174.856 162.561C173.719 155.24 173.858 147.584 176.353 140.606C176.729 139.543 179.984 132.426 181.097 132.532C181.915 132.606 179.927 139.224 180.336 139.894C184.279 146.438 185.424 154.422 184.901 162.07C184.323 169.502 182.921 176.846 180.721 183.968" fill="#263238"/>
<path d="M241.081 152.827C240.751 144.481 237.292 136.566 231.391 130.654C225.491 124.743 217.581 121.27 209.236 120.925L207.518 120.859C188.925 121.178 178.815 137.138 179.641 155.714L181.375 217.195L201.514 245.105L222.782 221.997C222.782 216.762 222.782 215.183 222.823 215.183C222.864 215.183 240.762 213.146 241.719 195.33C242.202 186.725 241.711 168.925 241.081 152.827Z" fill="#FFBF9D"/>
<path d="M222.84 215.183C222.84 215.183 211.576 215.379 199.936 207.363C199.936 207.363 204.966 220.991 222.84 220.124V215.183Z" fill="#FF9A6C"/>
<path d="M232.762 168.778C232.736 169.44 232.454 170.067 231.975 170.525C231.495 170.983 230.856 171.237 230.193 171.232C229.869 171.242 229.546 171.187 229.243 171.071C228.94 170.955 228.663 170.781 228.428 170.557C228.193 170.333 228.004 170.065 227.874 169.768C227.743 169.471 227.672 169.151 227.666 168.827C227.689 168.165 227.97 167.539 228.448 167.08C228.926 166.622 229.564 166.368 230.226 166.373C230.551 166.362 230.875 166.416 231.179 166.531C231.483 166.647 231.761 166.821 231.997 167.045C232.233 167.269 232.422 167.537 232.553 167.835C232.685 168.132 232.756 168.453 232.762 168.778Z" fill="#263238"/>
<path d="M236.966 160.541C236.631 160.86 234.766 159.354 232.058 159.248C229.351 159.142 227.257 160.426 226.97 160.066C226.831 159.911 227.175 159.322 228.083 158.725C229.303 157.953 230.731 157.576 232.173 157.645C233.597 157.701 234.966 158.208 236.083 159.093C236.868 159.788 237.122 160.401 236.966 160.541Z" fill="#263238"/>
<path d="M208.345 168.778C208.321 169.44 208.041 170.066 207.562 170.525C207.084 170.983 206.446 171.237 205.784 171.232C205.46 171.242 205.137 171.187 204.834 171.071C204.531 170.955 204.254 170.781 204.019 170.557C203.784 170.333 203.595 170.065 203.464 169.768C203.334 169.471 203.263 169.151 203.257 168.827C203.28 168.167 203.559 167.541 204.036 167.083C204.512 166.625 205.148 166.37 205.809 166.373C206.134 166.362 206.458 166.416 206.762 166.531C207.066 166.647 207.344 166.821 207.58 167.045C207.816 167.269 208.005 167.537 208.136 167.835C208.267 168.132 208.338 168.453 208.345 168.778Z" fill="#263238"/>
<path d="M210.676 160.541C210.341 160.86 208.475 159.354 205.768 159.248C203.06 159.142 200.966 160.426 200.68 160.066C200.541 159.911 200.884 159.322 201.792 158.725C203.012 157.953 204.441 157.576 205.882 157.645C207.306 157.701 208.675 158.208 209.792 159.093C210.57 159.788 210.831 160.401 210.676 160.541Z" fill="#263238"/>
<path d="M219.044 181.522C219.044 181.367 220.754 181.138 223.527 180.901C224.23 180.86 224.901 180.745 225.032 180.271C225.123 179.553 224.991 178.825 224.655 178.185L222.807 172.77C220.246 165.072 218.422 158.749 218.717 158.651C219.011 158.553 221.359 164.704 223.911 172.41C224.533 174.308 225.113 176.115 225.678 177.85C226.078 178.712 226.164 179.687 225.923 180.606C225.812 180.849 225.647 181.063 225.44 181.232C225.233 181.401 224.989 181.52 224.729 181.58C224.338 181.672 223.936 181.714 223.535 181.702C220.77 181.735 219.052 181.678 219.044 181.522Z" fill="#263238"/>
<path d="M210.668 154.52C210.3 155.215 207.968 154.422 205.089 154.283C202.21 154.144 199.78 154.585 199.526 153.866C199.42 153.514 199.944 152.9 200.991 152.36C202.34 151.714 203.834 151.432 205.326 151.542C206.806 151.611 208.241 152.074 209.482 152.884C210.422 153.522 210.839 154.193 210.668 154.52Z" fill="#263238"/>
<path d="M237.424 150.209C236.835 150.815 234.619 150.111 231.936 150.005C229.253 149.898 226.97 150.299 226.471 149.628C226.251 149.309 226.619 148.696 227.633 148.131C229.024 147.459 230.563 147.15 232.106 147.231C233.649 147.313 235.146 147.783 236.459 148.598C237.384 149.26 237.678 149.907 237.424 150.209Z" fill="#263238"/>
<path d="M180.557 168.966C180.254 168.827 168.459 164.876 168.344 177.04C168.23 189.203 180.5 186.856 180.524 186.487C180.549 186.119 180.557 168.966 180.557 168.966Z" fill="#FFBF9D"/>
<path d="M176.843 181.833C176.786 181.833 176.631 181.98 176.271 182.144C175.747 182.36 175.159 182.36 174.635 182.144C173.351 181.661 172.287 179.6 172.246 177.399C172.226 176.353 172.441 175.316 172.876 174.365C172.993 173.978 173.204 173.627 173.489 173.342C173.775 173.056 174.126 172.846 174.512 172.729C174.758 172.669 175.016 172.695 175.244 172.804C175.472 172.913 175.656 173.097 175.764 173.326C175.919 173.669 175.837 173.915 175.903 173.931C175.968 173.948 176.173 173.727 176.074 173.228C176.009 172.924 175.842 172.653 175.6 172.459C175.267 172.204 174.848 172.086 174.43 172.132C173.928 172.227 173.459 172.449 173.066 172.777C172.674 173.105 172.372 173.528 172.189 174.005C171.661 175.057 171.397 176.222 171.42 177.399C171.477 179.853 172.713 182.168 174.471 182.7C174.798 182.797 175.142 182.819 175.479 182.767C175.815 182.715 176.136 182.589 176.418 182.397C176.819 182.127 176.884 181.858 176.843 181.833Z" fill="#FF9A6C"/>
<path d="M233.195 132.606C235.167 131.518 229.245 125.121 224.394 122.921C217.032 119.583 205.866 117.53 199.101 119.444C190.921 121.751 184.189 125.8 180.099 133.203C176.009 140.606 174.471 149.244 174.7 157.743C174.774 160.32 175.036 163.011 176.418 165.195C178.12 167.894 181.383 169.596 181.244 173.318C181.198 173.991 181.285 174.666 181.502 175.305C181.718 175.944 182.059 176.533 182.504 177.04C184.737 179.42 187.469 177.187 188.729 174.954C191.412 170.177 191.715 164.467 191.952 158.995C192.124 155.101 192.279 151.125 191.191 147.387C190.594 145.35 189.637 143.428 189.154 141.367C188.672 139.305 188.729 136.958 190.021 135.273C190.319 134.909 190.65 134.575 191.011 134.275C192.713 132.79 194.779 131.786 196.997 131.364C199.215 130.943 201.506 131.12 203.633 131.878C210.504 134.332 222.234 137.947 225.302 135.616C229.719 132.271 230.774 130.078 230.774 130.078L233.195 132.606Z" fill="#263238"/>
<path d="M210.439 183.232C210.864 183.232 210.88 186.005 213.285 187.985C215.69 189.964 218.676 189.621 218.7 190.03C218.741 190.209 218.038 190.578 216.778 190.618C215.135 190.652 213.533 190.104 212.255 189.072C211.032 188.077 210.243 186.646 210.054 185.081C209.94 183.895 210.226 183.232 210.439 183.232Z" fill="#263238"/>
<path d="M139.06 238.921C139.06 238.921 128.524 247.445 125.8 259.936C123.076 272.427 108.115 329.908 107.739 338.382C107.362 346.857 107.739 364.91 123.403 365.278C139.068 365.646 178.717 347.372 178.717 347.372L171.15 324.468L146.43 325.147L139.06 238.921Z" fill="#E0E0E0"/>
<path d="M171.158 324.435C170.959 324.481 170.757 324.509 170.553 324.517L168.819 324.648L162.414 325.065L152.917 325.621L147.314 325.94C145.315 326.01 143.324 326.207 141.35 326.529C140.318 326.693 139.266 326.693 138.234 326.529C137.228 326.406 136.254 326.226 135.297 326.136C133.448 326.016 131.592 326.179 129.792 326.619C126.737 327.407 123.911 328.907 121.547 330.995C119.938 332.393 118.524 334 117.342 335.772C116.917 336.394 116.614 336.893 116.418 337.237C116.325 337.42 116.212 337.593 116.082 337.752C116.148 337.557 116.236 337.371 116.344 337.196C116.599 336.674 116.886 336.169 117.203 335.682C118.348 333.863 119.742 332.211 121.342 330.774C123.727 328.621 126.594 327.07 129.702 326.251C131.542 325.787 133.444 325.61 135.338 325.727C136.32 325.817 137.293 325.997 138.291 326.12C139.278 326.271 140.282 326.271 141.268 326.12C143.263 325.791 145.277 325.594 147.297 325.531L152.9 325.245L162.397 324.77L168.811 324.492L170.553 324.435C170.754 324.421 170.957 324.421 171.158 324.435Z" fill="#263238"/>
<path d="M147.109 325.098C147.064 324.915 147.036 324.729 147.027 324.541C146.986 324.124 146.929 323.592 146.864 322.905C146.733 321.457 146.536 319.445 146.307 316.991C145.825 311.993 145.08 305.106 144.238 297.49C143.395 289.874 142.7 283.028 142.332 277.997C142.127 275.494 141.98 273.474 141.907 272.067C141.907 271.404 141.849 270.864 141.825 270.431C141.814 270.243 141.814 270.054 141.825 269.866C141.877 270.047 141.907 270.234 141.915 270.422C141.956 270.831 142.005 271.363 142.07 272.058C142.209 273.498 142.397 275.51 142.635 277.973C143.109 282.962 143.862 289.858 144.696 297.474C145.53 305.089 146.234 311.985 146.643 316.983C146.847 319.486 146.986 321.515 147.068 322.914C147.068 323.584 147.125 324.116 147.142 324.55C147.151 324.733 147.14 324.917 147.109 325.098Z" fill="#263238"/>
<path d="M177.22 348.051C177.101 348.141 176.976 348.22 176.844 348.288L175.723 348.893C174.749 349.417 173.318 350.12 171.527 350.955C167.952 352.591 162.921 354.767 157.269 356.852C151.616 358.938 146.422 360.615 142.618 361.695C140.721 362.243 139.175 362.636 138.103 362.898L136.86 363.176C136.716 363.218 136.568 363.24 136.418 363.241C136.553 363.174 136.696 363.125 136.843 363.094L138.062 362.734C139.117 362.431 140.655 361.99 142.537 361.409C146.308 360.255 151.477 358.546 157.122 356.452C162.766 354.358 167.756 352.28 171.404 350.685C173.203 349.867 174.676 349.221 175.649 348.746L176.803 348.206C176.933 348.134 177.074 348.082 177.22 348.051Z" fill="#263238"/>
<path d="M266.578 256.909C266.589 256.977 266.589 257.046 266.578 257.114C266.578 257.269 266.578 257.465 266.521 257.703C266.464 258.259 266.382 259.02 266.284 259.977C266.071 261.948 265.727 264.795 265.286 268.312C264.402 275.347 263.069 285.057 261.425 295.748C259.78 306.439 258.153 316.108 256.991 323.102C256.386 326.57 255.887 329.384 255.543 331.372C255.371 332.321 255.232 333.073 255.126 333.613C255.077 333.85 255.036 334.047 255.012 334.202C255.001 334.27 254.981 334.336 254.954 334.398C254.942 334.331 254.942 334.261 254.954 334.194C254.954 334.03 255.003 333.842 255.036 333.605C255.118 333.049 255.232 332.296 255.371 331.347C255.69 329.351 256.132 326.529 256.68 323.053C257.801 316.051 259.363 306.382 260.999 295.682C262.635 284.983 264.026 275.298 265.032 268.304C265.506 264.819 265.891 261.989 266.161 259.985C266.292 259.036 266.398 258.275 266.48 257.727C266.48 257.49 266.545 257.294 266.57 257.138C266.559 257.062 266.562 256.984 266.578 256.909Z" fill="#263238"/>
<path d="M266.267 369.687C266.118 369.707 265.967 369.707 265.817 369.687L264.525 369.572C263.404 369.466 261.793 369.253 259.805 368.934C254.626 368.083 249.514 366.864 244.508 365.286C241.58 364.353 238.782 363.347 236.328 362.357C233.874 361.368 231.674 360.37 229.874 359.47C228.966 359.036 228.157 358.611 227.42 358.235C226.684 357.858 226.103 357.531 225.621 357.245L224.5 356.59C224.366 356.52 224.239 356.435 224.124 356.337C224.272 356.381 224.414 356.442 224.549 356.517L225.703 357.098C226.193 357.368 226.807 357.67 227.527 358.022C228.247 358.374 229.056 358.783 229.981 359.192C231.788 360.059 233.989 360.991 236.451 361.989C238.913 362.987 241.67 363.952 244.59 364.877C249.578 366.446 254.66 367.701 259.805 368.631C261.784 368.991 263.388 369.253 264.5 369.409L265.776 369.605C265.943 369.605 266.109 369.633 266.267 369.687Z" fill="#263238"/>
<g opacity="0.2">
<path d="M228.459 243.96C225.555 240.451 223.608 235.944 221.146 232.124C214.053 236.429 207.468 241.519 201.514 247.298C207.24 244.026 212.966 241.008 218.537 237.482L228.884 250.881C229.097 246.551 229.315 242.221 229.539 237.891L228.459 243.96Z" fill="black"/>
</g>
<g opacity="0.2">
<path d="M258.627 312.173C258.75 311.601 258.872 311.003 258.995 310.406L258.283 312.173H258.627Z" fill="black"/>
</g>
<g opacity="0.2">
<path d="M265.547 263.69C263.682 278.087 261.981 295.936 259.003 310.406C261.866 303.233 264.656 296.001 266.235 288.451C267.936 280.271 268.173 271.617 265.547 263.69Z" fill="black"/>
</g>
<path d="M173.874 310.235C173.874 310.235 168.884 312.787 168.148 314.848C167.73 316.235 167.73 317.715 168.148 319.102L170.848 327.977V337.212C170.848 337.212 173.015 346.595 175.077 347.552C177.138 348.509 180.803 348.37 183.257 344.509C184.657 342.315 185.757 339.944 186.529 337.458L190.782 319.83L192.001 310.832L180.451 316.787L177.179 321.27L173.989 316.182C173.989 316.182 176.59 313.63 176.385 312.043C176.181 310.456 173.874 310.235 173.874 310.235Z" fill="#FFBF9D"/>
<path d="M171.175 316.893C171.175 316.77 171.854 316.779 172.631 316.615C173.408 316.451 174.013 316.181 174.079 316.288C174.144 316.394 173.58 316.852 172.721 317.032C171.862 317.212 171.15 316.999 171.175 316.893Z" fill="#FF9A6C"/>
<path d="M176.393 341.311L177.211 303.846C177.21 302.582 177.697 301.366 178.57 300.452C179.443 299.537 180.636 298.995 181.899 298.938L245.858 297.531C246.614 297.54 247.359 297.721 248.035 298.06C248.711 298.4 249.3 298.89 249.758 299.491C250.217 300.093 250.532 300.792 250.679 301.533C250.827 302.275 250.804 303.041 250.611 303.773L241.024 344.542C240.789 345.637 240.181 346.617 239.303 347.314C238.426 348.011 237.334 348.381 236.214 348.362L181.023 346.464C179.727 346.392 178.512 345.809 177.644 344.844C176.776 343.878 176.327 342.607 176.393 341.311Z" fill="#263238"/>
<path d="M216.77 308.844L216.263 308.762C215.601 308.722 214.949 308.938 214.441 309.365C213.934 309.793 213.611 310.399 213.538 311.058C213.465 311.717 213.648 312.379 214.05 312.907C214.451 313.435 215.04 313.788 215.695 313.894C216.35 314 217.02 313.85 217.568 313.475C218.115 313.1 218.497 312.529 218.635 311.88C218.773 311.231 218.657 310.554 218.309 309.989C217.962 309.424 217.411 309.014 216.77 308.844Z" fill="white"/>
<path d="M243.764 301.736C243.764 301.858 230.087 302.185 213.212 302.472C196.336 302.758 182.659 302.905 182.651 302.783C182.643 302.66 196.328 302.341 213.203 302.046C230.079 301.752 243.764 301.621 243.764 301.736Z" fill="#455A64"/>
<path d="M193.621 310.366C193.621 310.366 197.171 306.824 201.392 309.188C205.613 311.552 219.813 321.687 224.713 323.037C229.613 324.386 234.529 325.409 238.226 323.037C241.924 320.664 244.647 317.63 244.819 314.595C244.991 311.56 246.84 304.959 250.897 304.779L252.926 306.3C252.926 306.3 252.108 316.116 252.108 320.321C252.108 324.525 248.361 330.472 248.361 330.472L245.637 335.143L247.036 340.288C247.036 340.288 245.343 348.059 241.122 352.116C236.901 356.174 228.59 356.337 228.59 356.337L201.596 339.446L176.426 332.01C176.426 332.01 177.097 328.632 180.516 328.46C183.936 328.288 189.473 330.57 189.473 330.57L176.394 320.656C176.619 319.627 177.243 318.729 178.129 318.158C179.015 317.588 180.091 317.392 181.122 317.613C185.212 318.12 199.707 326.611 199.707 326.611L184.868 311.724C184.868 311.724 184.533 307.838 188.083 307.634C189.155 307.623 190.215 307.865 191.177 308.34C192.139 308.814 192.976 309.508 193.621 310.366Z" fill="#FFBF9D"/>
<path d="M214.594 326.84C214.27 326.704 213.962 326.531 213.678 326.325C213.097 325.973 212.271 325.45 211.224 324.787C209.204 323.462 206.414 321.597 203.453 319.388C200.9 317.525 198.473 315.495 196.189 313.311C195.322 312.493 194.659 311.732 194.226 311.216C193.987 310.965 193.773 310.691 193.588 310.398C193.866 310.617 194.121 310.863 194.349 311.135C194.815 311.617 195.51 312.313 196.394 313.122C198.727 315.233 201.168 317.22 203.707 319.077C206.66 321.286 209.433 323.167 211.396 324.574L213.735 326.21C214.044 326.389 214.332 326.6 214.594 326.84Z" fill="#FF9A6C"/>
<path d="M205.629 330.529C204.249 330.021 202.958 329.3 201.801 328.394C200.571 327.602 199.468 326.628 198.529 325.507C198.619 325.417 200.115 326.668 202.079 328.051C204.042 329.433 205.686 330.423 205.629 330.529Z" fill="#FF9A6C"/>
<path d="M201.588 337.269C199.192 336.203 196.855 335.009 194.586 333.695C192.251 332.507 189.985 331.191 187.796 329.752C190.189 330.82 192.523 332.013 194.79 333.327C197.128 334.513 199.397 335.829 201.588 337.269Z" fill="#FF9A6C"/>
<path d="M245.784 193.694L266.488 194.046L256.402 181.072L245.784 193.694Z" fill="#455A64"/>
<path d="M255.633 203.87H252.124V207.379H255.633V203.87Z" fill="#455A64"/>
<path d="M258.84 207.576H255.633V210.7H258.84V207.576Z" fill="#455A64"/>
<path d="M254.987 212.018H252.288V214.717H254.987V212.018Z" fill="#455A64"/>
<path d="M261.539 204.712H258.84V207.412H261.539V204.712Z" fill="#455A64"/>
<path d="M251.96 207.576H250.038V209.498H251.96V207.576Z" fill="#455A64"/>
<path d="M258.128 218.766H255.388V216.025H258.128V218.766ZM256.206 217.948H257.31V216.843H256.206V217.948Z" fill="#455A64"/>
<path d="M260.901 210.889H258.979V212.811H260.901V210.889Z" fill="#455A64"/>
<path d="M261.498 192.001L250.742 192.124V204.762H261.531L261.498 192.001ZM258.063 202.52H256.141V200.598H258.063V202.52Z" fill="#455A64"/>
<path d="M176.238 275.036L199.347 275.429L188.091 260.942L176.238 275.036Z" fill="url(#paint34_linear_31_321)"/>
<path d="M186.97 286.39H183.052V290.308H186.97V286.39Z" fill="url(#paint35_linear_31_321)"/>
<path d="M190.708 290.685H186.79V294.603H190.708V290.685Z" fill="url(#paint36_linear_31_321)"/>
<path d="M186.062 295.96H183.052V298.971H186.062V295.96Z" fill="url(#paint37_linear_31_321)"/>
<path d="M193.343 287.331H190.332V290.341H193.343V287.331Z" fill="url(#paint38_linear_31_321)"/>
<path d="M183.06 291.02H180.909V293.171H183.06V291.02Z" fill="url(#paint39_linear_31_321)"/>
<path d="M192.909 294.39H190.758V296.541H192.909V294.39Z" fill="url(#paint40_linear_31_321)"/>
<path d="M193.048 273.146L182.021 273.277L181.31 287.388H193.375L193.048 273.146ZM189.171 284.885H187.019V282.742H189.171V284.885Z" fill="url(#paint41_linear_31_321)"/>
<path d="M137.612 217.015L171.314 217.58L154.897 196.459L137.612 217.015Z" fill="#455A64"/>
<path d="M153.261 233.58H147.551V239.29H153.261V233.58Z" fill="#455A64"/>
<path d="M158.169 239.355H153.269V244.255H158.169V239.355Z" fill="#455A64"/>
<path d="M151.944 245.334H147.551V249.727H151.944V245.334Z" fill="#455A64"/>
<path d="M162.553 234.946H158.16V239.338H162.553V234.946Z" fill="#455A64"/>
<path d="M147.551 239.83H144.418V242.963H147.551V239.83Z" fill="#455A64"/>
<path d="M156.901 255.469H152.966V251.519H156.917L156.901 255.469ZM153.768 254.651H156.083V252.337H153.784L153.768 254.651Z" fill="#455A64"/>
<path d="M161.293 244.721H158.16V247.854H161.293V244.721Z" fill="#455A64"/>
<path d="M162.61 214.553L145.171 214.463L145.031 235.028H162.61V214.553ZM156.492 231.38H153.359V228.222H156.492V231.38Z" fill="#455A64"/>
<path d="M234.193 244.419L261.367 244.877L248.132 227.854L234.193 244.419Z" fill="url(#paint42_linear_31_321)"/>
<path d="M246.815 257.776H242.21V262.382H246.815V257.776Z" fill="url(#paint43_linear_31_321)"/>
<path d="M251.216 262.815H246.611V267.42H251.216V262.815Z" fill="url(#paint44_linear_31_321)"/>
<path d="M245.744 269.016H242.21V272.549H245.744V269.016Z" fill="url(#paint45_linear_31_321)"/>
<path d="M254.3 258.88H250.766V262.414H254.3V258.88Z" fill="url(#paint46_linear_31_321)"/>
<path d="M242.21 263.216H239.682V265.743H242.21V263.216Z" fill="url(#paint47_linear_31_321)"/>
<path d="M249.752 277.196H246.406V273.85H249.752V277.196ZM247.224 276.378H248.934V274.668H247.224V276.378Z" fill="url(#paint48_linear_31_321)"/>
<path d="M253.801 267.175H251.273V269.703H253.801V267.175Z" fill="url(#paint49_linear_31_321)"/>
<path d="M253.981 242.202L241.016 242.357L240.198 258.946H254.365L253.981 242.202ZM250.169 256.108H247.649V253.588H250.169V256.108Z" fill="url(#paint50_linear_31_321)"/>
<path d="M31.2722 216.001L64.982 216.566L48.5566 195.445L31.2722 216.001Z" fill="url(#paint51_linear_31_321)"/>
<path d="M46.9286 232.565H41.219V238.275H46.9286V232.565Z" fill="url(#paint52_linear_31_321)"/>
<path d="M51.8285 238.341H46.9287V243.241H51.8285V238.341Z" fill="url(#paint53_linear_31_321)"/>
<path d="M45.6035 244.32H41.219V248.713H45.6035V244.32Z" fill="url(#paint54_linear_31_321)"/>
<path d="M56.2131 233.932H51.8286V238.324H56.2131V233.932Z" fill="url(#paint55_linear_31_321)"/>
<path d="M41.2191 238.815H38.0862V241.948H41.2191V238.815Z" fill="url(#paint56_linear_31_321)"/>
<path d="M50.1517 250.913H47.0188V254.046H50.1517V250.913Z" fill="url(#paint57_linear_31_321)"/>
<path d="M54.9616 243.707H51.8286V246.839H54.9616V243.707Z" fill="url(#paint58_linear_31_321)"/>
<path d="M56.2703 213.539L38.8306 213.449L38.6997 234.013H56.2703V213.539ZM50.1599 230.365H47.0269V227.232H50.1599V230.365Z" fill="url(#paint59_linear_31_321)"/>
<path d="M342.456 334.006L368.501 334.448L355.83 318.128L342.456 334.006Z" fill="url(#paint60_linear_31_321)"/>
<path d="M354.554 346.808H350.137V351.225H354.554V346.808Z" fill="url(#paint61_linear_31_321)"/>
<path d="M358.341 351.273H354.554V355.061H358.341V351.273Z" fill="url(#paint62_linear_31_321)"/>
<path d="M353.531 355.887H350.137V359.282H353.531V355.887Z" fill="url(#paint63_linear_31_321)"/>
<path d="M361.736 347.863H358.341V351.257H361.736V347.863Z" fill="url(#paint64_linear_31_321)"/>
<path d="M350.137 351.642H347.716V354.063H350.137V351.642Z" fill="url(#paint65_linear_31_321)"/>
<path d="M357.049 360.983H354.628V363.405H357.049V360.983Z" fill="url(#paint66_linear_31_321)"/>
<path d="M360.763 355.421H358.341V357.842H360.763V355.421Z" fill="url(#paint67_linear_31_321)"/>
<path d="M361.769 332.108L348.296 332.034L348.19 347.928H361.769V332.108ZM357.049 345.114H354.595V342.66H357.049V345.114Z" fill="url(#paint68_linear_31_321)"/>
<path d="M339.732 89.8245L373.434 90.3971L357.016 69.2764L339.732 89.8245Z" fill="url(#paint69_linear_31_321)"/>
<path d="M355.38 106.389H349.67V112.099H355.38V106.389Z" fill="url(#paint70_linear_31_321)"/>
<path d="M360.288 112.164H355.388V117.064H360.288V112.164Z" fill="url(#paint71_linear_31_321)"/>
<path d="M354.063 118.144H349.67V122.536H354.063V118.144Z" fill="url(#paint72_linear_31_321)"/>
<path d="M364.673 107.763H360.28V112.156H364.673V107.763Z" fill="url(#paint73_linear_31_321)"/>
<path d="M349.671 112.647H346.538V115.78H349.671V112.647Z" fill="url(#paint74_linear_31_321)"/>
<path d="M358.611 124.737H355.478V127.87H358.611V124.737Z" fill="url(#paint75_linear_31_321)"/>
<path d="M363.413 117.539H360.28V120.672H363.413V117.539Z" fill="url(#paint76_linear_31_321)"/>
<path d="M364.73 87.3706L347.29 87.2725L347.151 107.845H364.73V87.3706ZM358.611 104.197H355.478V101.064H358.611V104.197Z" fill="url(#paint77_linear_31_321)"/>
<defs>
<linearGradient id="paint0_linear_31_321" x1="242.995" y1="117.383" x2="250.341" y2="117.383" gradientUnits="userSpaceOnUse">
<stop stop-color="#2565AA"/>
<stop offset="1" stop-color="#0590E6"/>
</linearGradient>
<linearGradient id="paint1_linear_31_321" x1="167.968" y1="114.634" x2="171.06" y2="114.634" gradientUnits="userSpaceOnUse">
<stop stop-color="#2565AA"/>
<stop offset="1" stop-color="#0590E6"/>
</linearGradient>
<linearGradient id="paint2_linear_31_321" x1="239.936" y1="110.127" x2="243.028" y2="110.127" gradientUnits="userSpaceOnUse">
<stop stop-color="#2565AA"/>
<stop offset="1" stop-color="#0590E6"/>
</linearGradient>
<linearGradient id="paint3_linear_31_321" x1="213.375" y1="98.7039" x2="218.087" y2="98.7039" gradientUnits="userSpaceOnUse">
<stop stop-color="#2565AA"/>
<stop offset="1" stop-color="#0590E6"/>
</linearGradient>
<linearGradient id="paint4_linear_31_321" x1="159.804" y1="124.884" x2="168.974" y2="124.884" gradientUnits="userSpaceOnUse">
<stop stop-color="#2565AA"/>
<stop offset="1" stop-color="#0590E6"/>
</linearGradient>
<linearGradient id="paint5_linear_31_321" x1="196.042" y1="104.295" x2="198.995" y2="104.295" gradientUnits="userSpaceOnUse">
<stop stop-color="#2565AA"/>
<stop offset="1" stop-color="#0590E6"/>
</linearGradient>
<linearGradient id="paint6_linear_31_321" x1="176.647" y1="175.113" x2="235.993" y2="175.113" gradientUnits="userSpaceOnUse">
<stop stop-color="#2565AA"/>
<stop offset="1" stop-color="#0590E6"/>
</linearGradient>
<linearGradient id="paint7_linear_31_321" x1="212.541" y1="108.05" x2="218.357" y2="108.05" gradientUnits="userSpaceOnUse">
<stop stop-color="#2565AA"/>
<stop offset="1" stop-color="#0590E6"/>
</linearGradient>
<linearGradient id="paint8_linear_31_321" x1="199.502" y1="72.4994" x2="204.41" y2="72.4994" gradientUnits="userSpaceOnUse">
<stop stop-color="#2565AA"/>
<stop offset="1" stop-color="#0590E6"/>
</linearGradient>
<linearGradient id="paint9_linear_31_321" x1="152.917" y1="61.9225" x2="157.858" y2="61.9225" gradientUnits="userSpaceOnUse">
<stop stop-color="#2565AA"/>
<stop offset="1" stop-color="#0590E6"/>
</linearGradient>
<linearGradient id="paint10_linear_31_321" x1="149.154" y1="86.0779" x2="178.479" y2="86.0779" gradientUnits="userSpaceOnUse">
<stop stop-color="#2565AA"/>
<stop offset="1" stop-color="#0590E6"/>
</linearGradient>
<linearGradient id="paint11_linear_31_321" x1="158.035" y1="56.9404" x2="162.943" y2="56.9404" gradientUnits="userSpaceOnUse">
<stop stop-color="#2565AA"/>
<stop offset="1" stop-color="#0590E6"/>
</linearGradient>
<linearGradient id="paint12_linear_31_321" x1="162.599" y1="51.1895" x2="167.507" y2="51.1895" gradientUnits="userSpaceOnUse">
<stop stop-color="#2565AA"/>
<stop offset="1" stop-color="#0590E6"/>
</linearGradient>
<linearGradient id="paint13_linear_31_321" x1="179.739" y1="37.6522" x2="183.976" y2="37.6522" gradientUnits="userSpaceOnUse">
<stop stop-color="#2565AA"/>
<stop offset="1" stop-color="#0590E6"/>
</linearGradient>
<linearGradient id="paint14_linear_31_321" x1="199.625" y1="39.9591" x2="204.173" y2="39.9591" gradientUnits="userSpaceOnUse">
<stop stop-color="#2565AA"/>
<stop offset="1" stop-color="#0590E6"/>
</linearGradient>
<linearGradient id="paint15_linear_31_321" x1="204.345" y1="21.2434" x2="208.876" y2="21.2434" gradientUnits="userSpaceOnUse">
<stop stop-color="#2565AA"/>
<stop offset="1" stop-color="#0590E6"/>
</linearGradient>
<linearGradient id="paint16_linear_31_321" x1="218.668" y1="25.1615" x2="223.101" y2="25.1615" gradientUnits="userSpaceOnUse">
<stop stop-color="#2565AA"/>
<stop offset="1" stop-color="#0590E6"/>
</linearGradient>
<linearGradient id="paint17_linear_31_321" x1="240.335" y1="46.2332" x2="244.584" y2="46.2332" gradientUnits="userSpaceOnUse">
<stop stop-color="#2565AA"/>
<stop offset="1" stop-color="#0590E6"/>
</linearGradient>
<linearGradient id="paint18_linear_31_321" x1="208.313" y1="51.9181" x2="212.73" y2="51.9181" gradientUnits="userSpaceOnUse">
<stop stop-color="#2565AA"/>
<stop offset="1" stop-color="#0590E6"/>
</linearGradient>
<linearGradient id="paint19_linear_31_321" x1="218.13" y1="51.1573" x2="222.546" y2="51.1573" gradientUnits="userSpaceOnUse">
<stop stop-color="#2565AA"/>
<stop offset="1" stop-color="#0590E6"/>
</linearGradient>
<linearGradient id="paint20_linear_31_321" x1="247.543" y1="54.6425" x2="251.78" y2="54.6425" gradientUnits="userSpaceOnUse">
<stop stop-color="#2565AA"/>
<stop offset="1" stop-color="#0590E6"/>
</linearGradient>
<linearGradient id="paint21_linear_31_321" x1="211.069" y1="16.3352" x2="215.6" y2="16.3352" gradientUnits="userSpaceOnUse">
<stop stop-color="#2565AA"/>
<stop offset="1" stop-color="#0590E6"/>
</linearGradient>
<linearGradient id="paint22_linear_31_321" x1="162.185" y1="84.8267" x2="193.203" y2="84.8267" gradientUnits="userSpaceOnUse">
<stop stop-color="#2565AA"/>
<stop offset="1" stop-color="#0590E6"/>
</linearGradient>
<linearGradient id="paint23_linear_31_321" x1="167.436" y1="76.5565" x2="202.937" y2="76.5565" gradientUnits="userSpaceOnUse">
<stop stop-color="#2565AA"/>
<stop offset="1" stop-color="#0590E6"/>
</linearGradient>
<linearGradient id="paint24_linear_31_321" x1="201.539" y1="45.7876" x2="213.825" y2="45.7876" gradientUnits="userSpaceOnUse">
<stop stop-color="#2565AA"/>
<stop offset="1" stop-color="#0590E6"/>
</linearGradient>
<linearGradient id="paint25_linear_31_321" x1="201.49" y1="30.6055" x2="207.019" y2="30.6055" gradientUnits="userSpaceOnUse">
<stop stop-color="#2565AA"/>
<stop offset="1" stop-color="#0590E6"/>
</linearGradient>
<linearGradient id="paint26_linear_31_321" x1="209.236" y1="83.1128" x2="216.614" y2="83.1128" gradientUnits="userSpaceOnUse">
<stop stop-color="#2565AA"/>
<stop offset="1" stop-color="#0590E6"/>
</linearGradient>
<linearGradient id="paint27_linear_31_321" x1="220.631" y1="83.2354" x2="221.449" y2="83.2354" gradientUnits="userSpaceOnUse">
<stop stop-color="#2565AA"/>
<stop offset="1" stop-color="#0590E6"/>
</linearGradient>
<linearGradient id="paint28_linear_31_321" x1="227.666" y1="85.305" x2="249.932" y2="85.305" gradientUnits="userSpaceOnUse">
<stop stop-color="#2565AA"/>
<stop offset="1" stop-color="#0590E6"/>
</linearGradient>
<linearGradient id="paint29_linear_31_321" x1="235.257" y1="88.933" x2="263.192" y2="88.933" gradientUnits="userSpaceOnUse">
<stop stop-color="#2565AA"/>
<stop offset="1" stop-color="#0590E6"/>
</linearGradient>
<linearGradient id="paint30_linear_31_321" x1="220.296" y1="36.0369" x2="243.175" y2="36.0369" gradientUnits="userSpaceOnUse">
<stop stop-color="#2565AA"/>
<stop offset="1" stop-color="#0590E6"/>
</linearGradient>
<linearGradient id="paint31_linear_31_321" x1="183.068" y1="23.2883" x2="212.999" y2="23.2883" gradientUnits="userSpaceOnUse">
<stop stop-color="#2565AA"/>
<stop offset="1" stop-color="#0590E6"/>
</linearGradient>
<linearGradient id="paint32_linear_31_321" x1="244.124" y1="132.033" x2="250.341" y2="132.033" gradientUnits="userSpaceOnUse">
<stop stop-color="#2565AA"/>
<stop offset="1" stop-color="#0590E6"/>
</linearGradient>
<linearGradient id="paint33_linear_31_321" x1="149.694" y1="115.579" x2="156.737" y2="115.579" gradientUnits="userSpaceOnUse">
<stop stop-color="#2565AA"/>
<stop offset="1" stop-color="#0590E6"/>
</linearGradient>
<linearGradient id="paint34_linear_31_321" x1="176.238" y1="268.185" x2="199.347" y2="268.185" gradientUnits="userSpaceOnUse">
<stop stop-color="#2565AA"/>
<stop offset="1" stop-color="#0590E6"/>
</linearGradient>
<linearGradient id="paint35_linear_31_321" x1="183.052" y1="288.349" x2="186.97" y2="288.349" gradientUnits="userSpaceOnUse">
<stop stop-color="#2565AA"/>
<stop offset="1" stop-color="#0590E6"/>
</linearGradient>
<linearGradient id="paint36_linear_31_321" x1="186.79" y1="292.644" x2="190.708" y2="292.644" gradientUnits="userSpaceOnUse">
<stop stop-color="#2565AA"/>
<stop offset="1" stop-color="#0590E6"/>
</linearGradient>
<linearGradient id="paint37_linear_31_321" x1="183.052" y1="297.466" x2="186.062" y2="297.466" gradientUnits="userSpaceOnUse">
<stop stop-color="#2565AA"/>
<stop offset="1" stop-color="#0590E6"/>
</linearGradient>
<linearGradient id="paint38_linear_31_321" x1="190.332" y1="288.836" x2="193.343" y2="288.836" gradientUnits="userSpaceOnUse">
<stop stop-color="#2565AA"/>
<stop offset="1" stop-color="#0590E6"/>
</linearGradient>
<linearGradient id="paint39_linear_31_321" x1="180.909" y1="292.096" x2="183.06" y2="292.096" gradientUnits="userSpaceOnUse">
<stop stop-color="#2565AA"/>
<stop offset="1" stop-color="#0590E6"/>
</linearGradient>
<linearGradient id="paint40_linear_31_321" x1="190.758" y1="295.466" x2="192.909" y2="295.466" gradientUnits="userSpaceOnUse">
<stop stop-color="#2565AA"/>
<stop offset="1" stop-color="#0590E6"/>
</linearGradient>
<linearGradient id="paint41_linear_31_321" x1="181.31" y1="280.267" x2="193.375" y2="280.267" gradientUnits="userSpaceOnUse">
<stop stop-color="#2565AA"/>
<stop offset="1" stop-color="#0590E6"/>
</linearGradient>
<linearGradient id="paint42_linear_31_321" x1="234.193" y1="236.365" x2="261.367" y2="236.365" gradientUnits="userSpaceOnUse">
<stop stop-color="#2565AA"/>
<stop offset="1" stop-color="#0590E6"/>
</linearGradient>
<linearGradient id="paint43_linear_31_321" x1="242.21" y1="260.079" x2="246.815" y2="260.079" gradientUnits="userSpaceOnUse">
<stop stop-color="#2565AA"/>
<stop offset="1" stop-color="#0590E6"/>
</linearGradient>
<linearGradient id="paint44_linear_31_321" x1="246.611" y1="265.118" x2="251.216" y2="265.118" gradientUnits="userSpaceOnUse">
<stop stop-color="#2565AA"/>
<stop offset="1" stop-color="#0590E6"/>
</linearGradient>
<linearGradient id="paint45_linear_31_321" x1="242.21" y1="270.783" x2="245.744" y2="270.783" gradientUnits="userSpaceOnUse">
<stop stop-color="#2565AA"/>
<stop offset="1" stop-color="#0590E6"/>
</linearGradient>
<linearGradient id="paint46_linear_31_321" x1="250.766" y1="260.647" x2="254.3" y2="260.647" gradientUnits="userSpaceOnUse">
<stop stop-color="#2565AA"/>
<stop offset="1" stop-color="#0590E6"/>
</linearGradient>
<linearGradient id="paint47_linear_31_321" x1="239.682" y1="264.48" x2="242.21" y2="264.48" gradientUnits="userSpaceOnUse">
<stop stop-color="#2565AA"/>
<stop offset="1" stop-color="#0590E6"/>
</linearGradient>
<linearGradient id="paint48_linear_31_321" x1="246.406" y1="275.523" x2="249.752" y2="275.523" gradientUnits="userSpaceOnUse">
<stop stop-color="#2565AA"/>
<stop offset="1" stop-color="#0590E6"/>
</linearGradient>
<linearGradient id="paint49_linear_31_321" x1="251.273" y1="268.439" x2="253.801" y2="268.439" gradientUnits="userSpaceOnUse">
<stop stop-color="#2565AA"/>
<stop offset="1" stop-color="#0590E6"/>
</linearGradient>
<linearGradient id="paint50_linear_31_321" x1="240.198" y1="250.574" x2="254.365" y2="250.574" gradientUnits="userSpaceOnUse">
<stop stop-color="#2565AA"/>
<stop offset="1" stop-color="#0590E6"/>
</linearGradient>
<linearGradient id="paint51_linear_31_321" x1="31.2722" y1="206.005" x2="64.982" y2="206.005" gradientUnits="userSpaceOnUse">
<stop stop-color="#2565AA"/>
<stop offset="1" stop-color="#0590E6"/>
</linearGradient>
<linearGradient id="paint52_linear_31_321" x1="41.219" y1="235.42" x2="46.9286" y2="235.42" gradientUnits="userSpaceOnUse">
<stop stop-color="#2565AA"/>
<stop offset="1" stop-color="#0590E6"/>
</linearGradient>
<linearGradient id="paint53_linear_31_321" x1="46.9287" y1="240.791" x2="51.8285" y2="240.791" gradientUnits="userSpaceOnUse">
<stop stop-color="#2565AA"/>
<stop offset="1" stop-color="#0590E6"/>
</linearGradient>
<linearGradient id="paint54_linear_31_321" x1="41.219" y1="246.517" x2="45.6035" y2="246.517" gradientUnits="userSpaceOnUse">
<stop stop-color="#2565AA"/>
<stop offset="1" stop-color="#0590E6"/>
</linearGradient>
<linearGradient id="paint55_linear_31_321" x1="51.8286" y1="236.128" x2="56.2131" y2="236.128" gradientUnits="userSpaceOnUse">
<stop stop-color="#2565AA"/>
<stop offset="1" stop-color="#0590E6"/>
</linearGradient>
<linearGradient id="paint56_linear_31_321" x1="38.0862" y1="240.381" x2="41.2191" y2="240.381" gradientUnits="userSpaceOnUse">
<stop stop-color="#2565AA"/>
<stop offset="1" stop-color="#0590E6"/>
</linearGradient>
<linearGradient id="paint57_linear_31_321" x1="47.0188" y1="252.48" x2="50.1517" y2="252.48" gradientUnits="userSpaceOnUse">
<stop stop-color="#2565AA"/>
<stop offset="1" stop-color="#0590E6"/>
</linearGradient>
<linearGradient id="paint58_linear_31_321" x1="51.8286" y1="245.273" x2="54.9616" y2="245.273" gradientUnits="userSpaceOnUse">
<stop stop-color="#2565AA"/>
<stop offset="1" stop-color="#0590E6"/>
</linearGradient>
<linearGradient id="paint59_linear_31_321" x1="38.6997" y1="223.731" x2="56.2703" y2="223.731" gradientUnits="userSpaceOnUse">
<stop stop-color="#2565AA"/>
<stop offset="1" stop-color="#0590E6"/>
</linearGradient>
<linearGradient id="paint60_linear_31_321" x1="342.456" y1="326.288" x2="368.501" y2="326.288" gradientUnits="userSpaceOnUse">
<stop stop-color="#2565AA"/>
<stop offset="1" stop-color="#0590E6"/>
</linearGradient>
<linearGradient id="paint61_linear_31_321" x1="350.137" y1="349.016" x2="354.554" y2="349.016" gradientUnits="userSpaceOnUse">
<stop stop-color="#2565AA"/>
<stop offset="1" stop-color="#0590E6"/>
</linearGradient>
<linearGradient id="paint62_linear_31_321" x1="354.554" y1="353.167" x2="358.341" y2="353.167" gradientUnits="userSpaceOnUse">
<stop stop-color="#2565AA"/>
<stop offset="1" stop-color="#0590E6"/>
</linearGradient>
<linearGradient id="paint63_linear_31_321" x1="350.137" y1="357.585" x2="353.531" y2="357.585" gradientUnits="userSpaceOnUse">
<stop stop-color="#2565AA"/>
<stop offset="1" stop-color="#0590E6"/>
</linearGradient>
<linearGradient id="paint64_linear_31_321" x1="358.341" y1="349.56" x2="361.736" y2="349.56" gradientUnits="userSpaceOnUse">
<stop stop-color="#2565AA"/>
<stop offset="1" stop-color="#0590E6"/>
</linearGradient>
<linearGradient id="paint65_linear_31_321" x1="347.716" y1="352.852" x2="350.137" y2="352.852" gradientUnits="userSpaceOnUse">
<stop stop-color="#2565AA"/>
<stop offset="1" stop-color="#0590E6"/>
</linearGradient>
<linearGradient id="paint66_linear_31_321" x1="354.628" y1="362.194" x2="357.049" y2="362.194" gradientUnits="userSpaceOnUse">
<stop stop-color="#2565AA"/>
<stop offset="1" stop-color="#0590E6"/>
</linearGradient>
<linearGradient id="paint67_linear_31_321" x1="358.341" y1="356.632" x2="360.763" y2="356.632" gradientUnits="userSpaceOnUse">
<stop stop-color="#2565AA"/>
<stop offset="1" stop-color="#0590E6"/>
</linearGradient>
<linearGradient id="paint68_linear_31_321" x1="348.19" y1="339.981" x2="361.769" y2="339.981" gradientUnits="userSpaceOnUse">
<stop stop-color="#2565AA"/>
<stop offset="1" stop-color="#0590E6"/>
</linearGradient>
<linearGradient id="paint69_linear_31_321" x1="339.732" y1="79.8367" x2="373.434" y2="79.8367" gradientUnits="userSpaceOnUse">
<stop stop-color="#2565AA"/>
<stop offset="1" stop-color="#0590E6"/>
</linearGradient>
<linearGradient id="paint70_linear_31_321" x1="349.67" y1="109.244" x2="355.38" y2="109.244" gradientUnits="userSpaceOnUse">
<stop stop-color="#2565AA"/>
<stop offset="1" stop-color="#0590E6"/>
</linearGradient>
<linearGradient id="paint71_linear_31_321" x1="355.388" y1="114.614" x2="360.288" y2="114.614" gradientUnits="userSpaceOnUse">
<stop stop-color="#2565AA"/>
<stop offset="1" stop-color="#0590E6"/>
</linearGradient>
<linearGradient id="paint72_linear_31_321" x1="349.67" y1="120.34" x2="354.063" y2="120.34" gradientUnits="userSpaceOnUse">
<stop stop-color="#2565AA"/>
<stop offset="1" stop-color="#0590E6"/>
</linearGradient>
<linearGradient id="paint73_linear_31_321" x1="360.28" y1="109.96" x2="364.673" y2="109.96" gradientUnits="userSpaceOnUse">
<stop stop-color="#2565AA"/>
<stop offset="1" stop-color="#0590E6"/>
</linearGradient>
<linearGradient id="paint74_linear_31_321" x1="346.538" y1="114.213" x2="349.671" y2="114.213" gradientUnits="userSpaceOnUse">
<stop stop-color="#2565AA"/>
<stop offset="1" stop-color="#0590E6"/>
</linearGradient>
<linearGradient id="paint75_linear_31_321" x1="355.478" y1="126.303" x2="358.611" y2="126.303" gradientUnits="userSpaceOnUse">
<stop stop-color="#2565AA"/>
<stop offset="1" stop-color="#0590E6"/>
</linearGradient>
<linearGradient id="paint76_linear_31_321" x1="360.28" y1="119.105" x2="363.413" y2="119.105" gradientUnits="userSpaceOnUse">
<stop stop-color="#2565AA"/>
<stop offset="1" stop-color="#0590E6"/>
</linearGradient>
<linearGradient id="paint77_linear_31_321" x1="347.151" y1="97.5588" x2="364.73" y2="97.5588" gradientUnits="userSpaceOnUse">
<stop stop-color="#2565AA"/>
<stop offset="1" stop-color="#0590E6"/>
</linearGradient>
</defs>
</svg>
