<svg width="32" height="33" viewBox="0 0 32 33" fill="none" xmlns="http://www.w3.org/2000/svg">
<path d="M30.4162 11.8639L14.365 27.9139C14.1792 28.0996 13.9587 28.247 13.7161 28.3475C13.4734 28.4481 13.2133 28.4998 12.9506 28.4998C12.6879 28.4998 12.4278 28.4481 12.1851 28.3475C11.9424 28.247 11.7219 28.0996 11.5362 27.9139L2.58372 18.9139C2.20931 18.5389 1.99902 18.0306 1.99902 17.5007C1.99902 16.9708 2.20931 16.4626 2.58372 16.0876L5.58372 13.0876C5.95751 12.7137 6.46412 12.5031 6.9928 12.5017C7.52148 12.5002 8.0292 12.7082 8.40497 13.0801L12.985 17.4889L12.9987 17.5026L24.59 6.08136C24.9648 5.7081 25.4722 5.49854 26.0012 5.49854C26.5302 5.49854 27.0376 5.7081 27.4125 6.08136L30.4125 9.02636C30.5998 9.212 30.7486 9.43285 30.8502 9.6762C30.9518 9.91956 31.0043 10.1806 31.0047 10.4443C31.005 10.7081 30.9532 10.9692 30.8522 11.2129C30.7512 11.4565 30.6031 11.6777 30.4162 11.8639Z" fill="url(#paint0_linear_86_1872)"/>
<defs>
<linearGradient id="paint0_linear_86_1872" x1="1.99902" y1="16.9992" x2="31.0047" y2="16.9992" gradientUnits="userSpaceOnUse">
<stop stop-color="#2565AA"/>
<stop offset="1" stop-color="#0590E6"/>
</linearGradient>
</defs>
</svg>
